<?xml version="1.0" encoding="utf-8"?>
<!-- Generator: Adobe Illustrator 26.0.0, SVG Export Plug-In . SVG Version: 6.00 Build 0)  -->
<svg version="1.1" id="Capa_1" xmlns="http://www.w3.org/2000/svg" xmlns:xlink="http://www.w3.org/1999/xlink" x="0px" y="0px"
	 viewBox="0 0 666 630" style="enable-background:new 0 0 666 630;" xml:space="preserve">
<style type="text/css">
	.st0{fill:#F2F2F2;}
</style>
<path class="st0" d="M65.6,193.8c1.7-0.3,0.7,3-3.4,10.9c-3.7,7.3-6.7,17.6-7.4,25.4c-0.6,6.1-3,14.2-4.5,15.3
	c-1.1,0.7-1.3,2.3-0.9,5.3c0.6,4.4-1.3,10.9-3,10.2c-0.5-0.2-1.1,3.6-1.2,8.4c-0.2,4.9-0.5,9.8-0.8,10.8c-0.2,1.1-0.6,4.8-0.9,8.3
	c-0.3,3.5-1.1,9.3-1.7,13.1c-2.1,12-1.2,62,1,63c0.6,0.2,1,2.6,0.9,5.1c-0.1,2.7,0.3,5.5,0.8,6.4c0.4,0.9,0.5,2.5,0.1,3.5
	c-0.8,2,2.1,17.3,4.3,22c0.8,1.7,1.1,3.4,0.7,3.7c-0.4,0.3-0.3,1.3,0.2,2.2s0.6,2,0.2,2.2c-0.5,0.3,0.1,2.2,1.1,4.3
	c1.4,2.6,2.7,3.9,4.7,4.4c2.3,0.5,2.9,1.3,3.4,4.5c0.3,2.1,1.7,5.3,3,7c1.7,2.2,2.1,3.8,1.3,4.6c-1.4,1.5,4,14.5,9.9,23.6
	c2.5,3.7,6,9.8,7.9,13.4c1.9,3.5,4.3,6.9,5.3,7.4c1.1,0.6,3.5,4,5.6,7.8c7.4,13.3,16.1,26.1,16.7,24.6c0.8-1.8,3.6,0.5,6.7,5.8
	c4.8,8.1,8.2,12.5,9.5,12.3c1-0.1,6.2,9.6,9.3,17.6c1,2.6,3.4,4,4.1,2.5c0.2-0.6,1.5-0.4,2.8,0.4c1.8,1,2.2,1.8,1.5,2.9
	c-0.6,0.9-0.2,2.2,1.2,3.5c3.3,3.2,22.2,15,26.7,16.7c2.2,0.8,7.4,4.2,11.5,7.5c6.7,5.3,9.2,6.8,23.5,12.9c8.8,3.8,17.8,8,20,9.3
	c2.2,1.2,9,3.8,15.5,5.5c6.9,2,12.1,3.9,12.8,4.7c1.9,2.3,20.5,7.6,29.1,8.2c4.3,0.4,10,1.4,12.7,2.3c5.8,1.9,19.3,3,26,2.2
	c2.6-0.3,5.2-0.2,5.7,0.3c2.6,2.5,26.5,3,52,1.2c14.6-1.1,26.7-1.7,26.9-1.3c0.2,0.4,3.6,0,7.6-1.1c4-0.9,9.1-1.5,11.4-1.3
	c2.3,0.3,4.9-0.1,6-0.8c0.9-0.7,2.2-1,2.7-0.8c1.6,0.7,16.4-6.2,22.4-10.3c2.9-2.1,8.8-5.2,13-7c13.5-5.8,24.2-13,53.4-35.6
	c4.2-3.3,8.2-5.8,8.7-5.6s2.7-1.5,4.8-3.8c2.1-2.4,6.7-7,10.2-10.1c5.9-5.2,6.5-6.2,8-11.4c2.7-9.7,2.7-10-0.8-11.5
	c-2.7-1.1-3.5-0.9-6.5,1.6c-1.9,1.6-6.5,4.3-10.1,6.1c-3.8,1.8-6.9,3.5-7.1,3.9c-0.2,0.4-1.3,2.7-2.5,5.4c-1.7,3.5-3,5-5.4,6.1
	c-4.2,1.8-4.5,1.1-0.7-2.4c1.7-1.4,2.8-2.9,2.7-3.3c-0.4-1.1-6.4,4.3-9.6,8.6c-5.3,7.1-8,10.2-9.7,11.1c-1,0.5-2.8,2-3.9,3.2
	c-2.1,2.1-2.3,2.1-2.2,0.2c0-1.8-0.5-1.7-3.7,1.4c-2.1,1.9-5.3,4-7.1,4.4c-1.8,0.5-7.8,4.6-13.2,8.9c-5.5,4.3-10.8,7.8-11.9,7.8
	c-1.2-0.1-1.8,0.1-1.3,0.3c0.3,0.2-0.4,1.2-1.8,2.4c-4.1,3.4-18.8,8.6-25.9,9.3c-10.7,1-17.5,2.6-18.3,4.1c-0.8,2-6.4,3.9-10.8,3.6
	l-3.8-0.3l3-1.3c1.6-0.7,3.5-1.1,4.2-0.9c0.6,0.2,1.6-0.1,2.2-0.7c0.6-0.6,0.8-1.3,0.3-1.5c-0.9-0.4-10.7,1.7-12.6,2.8
	c-3.3,1.8-12.2,4.5-13.4,4.2c-0.8-0.2-2.7-0.2-4.4,0.2c-3.9,0.7-4.6,0.4-3.1-1.2c1.2-1.2,0.5-1.3-4.7-0.1c-1.6,0.3-4.8,0.2-6.9-0.3
	c-2.2-0.5-9.6-0.3-16.5,0.3c-12.5,1.2-15.8,1-13.6-0.7c0.6-0.4-0.4-0.2-2.1,0.6c-2.5,1-5.9,1-14.9-0.5c-6.4-1-13.3-1.9-15.3-1.8
	c-2.2-0.1-4.9-0.9-7.5-2.4s-4-1.9-4.3-1.1c-0.2,0.6,0.1,1.2,0.7,1.5c0.7,0.4,0.2,0.7-1,1.2c-3.3,0.8-9.9-1-10.9-2.9
	c-0.7-1.3-2.2-1.7-7-2c-3.4-0.2-8.5-1.2-11.4-1.9c-3.5-1.1-4.4-1.6-2.7-1.4l2.7,0.1l-2.3-1.1c-1.7-0.8-1.9-1.1-0.6-1.3
	c2-0.4-7.9-3.7-16-5.5c-3-0.6-7.5-2-9.9-3.1c-2.5-1-6.7-2.1-9.4-2.3c-4.1-0.4-5.6-0.9-8.6-3.3c-1.9-1.6-5.7-3.8-8.1-5
	c-2.5-1.3-6.9-3.9-10.1-5.7c-3.1-1.9-7.3-4-9.5-4.6s-5.8-2.5-8-4.3l-4.1-3.1l4.7,1.8c3.1,1.2,4.3,1.4,3.6,0.4
	c-1.3-1.7-13.4-9.2-14.6-9c-0.5,0.1-2.9-1.9-5.5-4.3c-2.4-2.5-5.4-5-6.4-5.4c-1.1-0.5-2.3-1.6-2.5-2.5c-0.2-1-1.9-2.9-3.6-4.3
	c-2.4-1.9-3-3-2.2-3.7c0.9-0.9,0.2-1.5-3.3-3c-4.9-2-8.7-6.3-9.1-10.1c-0.1-1.2-0.8-2.8-1.5-3.4c-1.1-1-1.2-0.9-0.7,0.7
	c1.1,3.8-0.9,2.3-8-5.7c-4-4.6-9.1-10.1-11.3-12.4c-2.4-2.3-3.7-4.4-3.1-4.8s-0.1-1.5-1.6-2.4c-1.4-1-2.5-2.1-2.3-2.6
	s-0.7-1.3-1.9-1.8c-4.1-1.7-6.6-4.9-10-12.7c-1.8-4.2-4.3-9.2-5.5-11c-1.2-1.9-1.8-3.6-1.3-3.9s-2.1-4.6-5.7-9.4
	c-3.6-4.9-6.8-10.2-7.1-11.7c-0.3-1.6-1-2.8-1.7-2.8c-0.6,0.2-2.5-1.6-4.3-3.8c-3.6-4.9-3.9-5.1-4.1-2.7c-0.1,1.7-0.2,1.8-1.3-0.2
	c-3-5.2-3.8-7.5-2.9-9.6c0.5-1.3,1.4-1.9,2.3-1.5c1.5,0.6,2.2,4.8,1,5.7c-0.9,0.5,5,4.7,6,4.2c0.3-0.1,0.1-1.5-0.6-3.1
	c-0.6-1.7-0.7-3.7-0.4-4.6s0.3-1.8-0.1-2c-0.5-0.2-1.5-3.8-2.2-7.9c-0.9-5.2-3-10.7-6.7-17.4c-3-5.5-6.6-13.1-7.8-17.1
	c-2.1-6.6-3.5-12.2-2.3-9.6c0.3,0.6,1.5,0.6,2.7,0.2c2-0.7,2.2-0.6,2,1.5c-0.3,2.7,4.2,17.2,5.1,16.9c0.4-0.2-0.5-3.6-1.8-7.7
	c-1.4-4-2.2-8.1-1.8-9c1-2.3,0.4-5.9-0.9-6.4c-1.2-0.5-4.1-13.6-4-17.5c0.1-1.9,0.2-1.9,1.6,0.8c0.8,1.5,0.4-0.2-1-3.9
	c-1.3-3.7-2.1-7.3-1.7-8.1s0.5-3,0.3-4.9c-0.1-1.9,0.1-4.6,0.5-6.2c0.9-2.9,1.9-31.8,1.4-37.5c-0.3-3.9-0.2-4.3,1.5-2.7
	c0.9,0.9,0.8-0.7-0.1-4.6c-0.9-3.4-2.2-9-3-12.7l-1.5-6.7l4.3,0.3c3.9,0.3,4.3,0.6,4.8,2.8c0.6,2.1,0.8,2,1.8-2
	c1.4-5.6,1.2-6.7-1-5.3c-2.9,1.7-2.4-0.5,1.4-6.9c3.4-5.7,3.4-6.2,2.1-9.1c-1.7-3.9-1-6.4,1.6-5.3c2.2,0.9,2.1,1.1,2.1-4.8
	c0-4.8,0.1-4.8,2.2-5.2c4-0.7,8.5-15.5,8.9-29.4c0.1-1.6,0.8-4.6,1.7-6.7c1.3-3.2,1.7-3.5,2.6-2c0.7,1.5,1.3,1.6,3.1,1
	c1.9-0.8,2.2-1.4,2.2-4.5c0.1-11.8,0.9-18.4,2.9-23.2c2.4-6,6.3-12.5,7.5-12.8c0.5,0-0.6,6.8-2.4,15.3c-3,13.6-3.1,15.3-1.3,13.9
	c1.1-0.9,2.5-2.6,3.1-3.9l1.1-2.2l-0.5,2.5c-1,5.2,7.7-8.7,10.5-16.8l2.6-7.6l-3.2,5.6c-1.7,3.1-3.8,7.2-4.6,9.1
	c-1.6,3.9-3.6,4.2-2.8,0.6c1.3-6.8,2.3-9.3,5.6-15c4.3-7.1,5.8-8.1,6.5-4.7c0.6,2.4,0.8,2.3,4-2.7c2.2-3.1,3.7-4.6,3.8-3.8
	c0.2,0.8,1.4-0.6,3.1-3.5c2.6-4.8,9.7-11.9,12.2-12.2c0.6-0.1,2-0.8,2.8-1.5c1.6-1.3,1.5-1.4-1.2-1.5c-3.6-0.1-8.1-2.9-8.9-5.6
	c-0.5-1.7,0.1-2.5,3.2-4.9c5.9-4.6,13.8-9,15.1-8.4c0.6,0.3,0.8,2.1,0.4,4c-0.8,3.7,0.7,4.5,2.1,1.1c0.5-1.1,1.8-2.2,3.1-2.4
	c1.2-0.2,2.9-1.4,3.8-2.8c3.3-5.1,4.6-6.5,8.3-9c2.4-1.6,4-3.3,4.1-4.6c0.2-2.9,7.8-12.1,9.7-11.9c0.9,0.2,3.6-1,6-2.5
	c8.4-5.3,28.6-14.9,31.3-15c1.9-0.1,2.8-0.7,2.9-1.9c0.3-3.8,11.8-12.7,21.1-16.7c2.5-1,4.8-1.5,5.2-1c0.7,1.1,10.6-2.9,18-7.3
	c5.8-3.5,14.6-5.7,18.2-4.6c0.9,0.4,1.4,1.3,1.1,2.6c-0.4,1.6-1.9,2.3-6.2,3.1c-3.1,0.5-7.5,1.9-9.6,2.8l-4,1.9l6-1.5
	c11.7-2.9,28.6-6,35.2-6.5c3.7-0.2,7.9-0.9,9.3-1.7c3.1-1.4,2.4-1.9-1.6-1.2c-1.9,0.4-2.8,0.1-2.5-0.5c0.2-0.6,1.2-1,2-1
	c0.9-0.1,1.8-0.4,2.1-1.1c0.5-1.1,12.4-3.7,18.9-4.1c2-0.1,4.5,0.4,5.6,1.1c1.1,0.8,3.8,1.4,6.1,1.3c4-0.1,4.2-0.1,2.2-1.6
	c-1.9-1.3-1.5-1.6,5.1-2.5c3.9-0.6,9-1,11.2-1c3.8,0.1,3.9,0,1.1-0.7c-1.7-0.4-7.3-0.5-12.3-0.4c-5.1,0.3-12.8,0.1-17.1-0.3
	c-4.3-0.4-8.4-0.6-9.1-0.3c-0.7,0.1-2.3,0.7-3.7,1c-2.1,0.5-2.1,0.7-0.6,0.8c1,0.1,1.5,0.4,1,0.7c-1.3,1-16.6,4.2-18.1,3.8
	c-0.7-0.2-2.2,0.1-3.5,0.5c-2.8,0.9-9.3-0.3-7.8-1.4c1-0.8-4.9-0.2-14.4,1.4c-2.4,0.4-11.1,3.1-19.3,6c-15,5.3-44.5,17.3-40,16.3
	c1.2-0.4-0.6,0.6-4.2,2.3c-3.7,1.5-6.7,2.6-6.8,2.3c-0.2-0.3,0.3-1,1.1-1.5c0.7-0.5-0.1-0.1-1.7,0.7c-1.7,0.8-3.2,1.8-3.4,2.2
	c-0.6,1.5-10,7-16.5,9.6c-3.6,1.5-9.2,4.5-12.5,6.7s-8.3,5.2-11.3,6.7c-5.8,2.9-26.6,20.7-27.7,23.7c-0.3,1.1-3.9,5.4-7.8,9.7
	c-4.1,4.6-7.2,8.8-7.5,10.1c-0.3,2.3-1.7,3.9-16.8,19.4c-7.3,7.6-9.5,10.6-14,19.1c-3,5.6-7.9,14.2-10.9,19.2
	c-3.1,5-6.4,11.4-7.5,14.4c-1.1,2.9-2.5,5.3-3.2,5.5c-0.7,0-1.6,1-2,2C65,193.1,65.1,193.9,65.6,193.8z"/>
<path class="st0" d="M82.5,197.5c1.2,1.6,2.6-0.4,3.8-5.2c0.9-4.1,0.9-4.4-0.5-2.6C83.5,192.7,81.9,196.5,82.5,197.5z"/>
<path class="st0" d="M56,270.6c2,3.3,2.6,3.6,2.3,0.9c0-1.2,0.2-3.2,0.7-4.3c0.8-1.9,0.8-2.1-1.7-1.1C54.1,267.2,54,267.5,56,270.6z
	"/>
<path class="st0" d="M137.4,104.2c0.1,0.5,0.7,1.1,1.3,1.3c0.6,0.2,0.7-0.3,0.3-1.2c-0.3-0.8-0.9-1.4-1.3-1.3
	C137.3,103.2,137.2,103.8,137.4,104.2z"/>
<path class="st0" d="M220.8,54.2c0.3,0.1,1.3-0.4,2.2-1.2c1-0.8,1.5-1.5,1.3-1.6c-0.3-0.1-1.3,0.4-2.2,1.2
	C221.2,53.3,220.6,54.1,220.8,54.2z"/>
<path class="st0" d="M225,50.5c0.7,0.3,6-2.5,9-4.6c2.4-1.9-2.2-0.9-5.7,1.1C224.4,49.2,223.7,50,225,50.5z"/>
<path class="st0" d="M236.1,41c1.8-0.7,3.3-1.4,3.4-1.6c0.1-0.3-1.2,0-3,0.7s-3.3,1.4-3.4,1.6C233,42,234.3,41.7,236.1,41z"/>
<path class="st0" d="M239.1,46.6c0.3,0.1,2-0.8,3.8-2c2.5-1.5,2.7-1.9,1.2-1.4C241.9,43.8,238.3,46.3,239.1,46.6z"/>
<path class="st0" d="M262.3,36.8c0.5,0.2,1.1-0.1,1.3-0.6c0.2-0.5-0.2-0.8-0.8-0.8c-0.7,0-1.2,0.4-1.3,0.6
	C261.4,36.2,261.7,36.5,262.3,36.8z"/>
<path class="st0" d="M298.9,15.1c1.3,0.5,5.7-0.7,5.3-1.5c-0.2-0.4-1.6-0.3-3.2,0.2C299.4,14.3,298.4,14.9,298.9,15.1z"/>
<path class="st0" d="M354,16.5c1.6,0.7,6.5,0.2,6.8-0.5c0.4-0.9-5.7-1.3-6.9-0.5C353.5,15.8,353.5,16.3,354,16.5z"/>
<path class="st0" d="M353.5,20.6c0.5,0.2,1.1-0.1,1.3-0.6c0.2-0.5-0.2-0.8-0.8-0.8c-0.7,0-1.2,0.4-1.3,0.6
	C352.7,20.1,353,20.4,353.5,20.6z"/>
<path class="st0" d="M374,22.2c2.1,0,3.7,0.1,3.6,0.4c-0.1,0.2,1,0.2,2.5-0.1c1.4-0.3,5.4,0,8.6,0.6c4.9,0.8,6.2,0.6,6.8-0.7
	c0.4-1-0.2-2.7-1.4-4.2c-1.8-2.1-2.6-2.3-5.6-2.1l-3.5,0.3l4.6,2l4.5,2.1h-3.3c-1.9,0.1-4.9-0.5-6.9-1.2c-1.8-0.8-3.6-1.1-3.7-0.7
	c-0.2,0.5-2.4,1-4.9,1.3C369.9,20.5,368.8,22.2,374,22.2z"/>
<path class="st0" d="M164.4,545.9c1.4,2.9,3,4.5,5.3,5.6c3.1,1.4,3.2,1.3,2.1-0.5c-1.2-1.8-9.2-10-9.2-9.4
	C162.5,541.6,163.3,543.6,164.4,545.9z"/>
<path class="st0" d="M386.6,13.8c0.6,0.2,1.4,0.1,1.9-0.3c0.5-0.4,0.2-0.7-0.7-0.7C385.8,12.7,385.3,13.3,386.6,13.8z"/>
<path class="st0" d="M392.2,15c0.4,0.3,3.2,0.7,6,1.1c5,0.6,5,0.6,2-0.8c-1.8-0.7-4.5-1.2-6.1-1S391.6,14.7,392.2,15z"/>
<path class="st0" d="M403.2,26.1c0.7,0.3,2.2,0.5,3.1,0.3c2.1-0.4,0.6-1-2.3-1C402.6,25.5,402.3,25.7,403.2,26.1z"/>
<path class="st0" d="M414.9,23.4c1.5,0.5,3.7,0.9,5.2,0.7c2.3-0.2,2.5-0.5,1.8-2c-0.8-1.3-1.8-1.5-5.1-1
	C411.9,21.8,411.6,22.1,414.9,23.4z"/>
<path class="st0" d="M433.7,24.8c1.5,0.6,3.5,0.9,4.5,0.7c1.3-0.2,0.7-0.6-2.2-1.2C431.1,23,430.1,23.3,433.7,24.8z"/>
<path class="st0" d="M441.1,22.3c3.5,1.5,4.3,1.6,3.4,0.3c-0.8-1-2.4-1.7-4.6-1.9C436.6,20.4,436.7,20.4,441.1,22.3z"/>
<path class="st0" d="M440.9,32.2c2.4,1.2,5.1,1.8,6.3,1.3c0.7-0.3-0.4-0.8-2.7-1.3C440.4,31.1,438.8,31.1,440.9,32.2z"/>
<path class="st0" d="M476.1,42.3c1.5,0.6,2.1,0.7,1.3,0c-0.8-0.5-2-1.1-2.8-1.2C474,41.1,474.6,41.6,476.1,42.3z"/>
<path class="st0" d="M474.8,46c1.5,1.8,10,6.9,9.6,5.7c-0.4-0.8-10.5-8-10.7-7.5C473.6,44.4,474.1,45.2,474.8,46z"/>
<path class="st0" d="M484.4,43.7c0.4,0.2,1.7,0.3,2.9,0.2c2.1,0,2.1-0.1,0.2-0.9c-1.1-0.6-2.4-0.7-2.9-0.2
	C484.1,43.1,483.9,43.6,484.4,43.7z"/>
<path class="st0" d="M488.5,51.2c1.2,1.1,2.4,0.9,3-0.4c0.4-1-2.1-2-3.2-1.2C487.9,50,487.9,50.6,488.5,51.2z"/>
<path class="st0" d="M263.9,597c3.1,0.3,3.7,0.1,3.3-0.9c-0.2-0.4-1.6-0.4-3.1-0.1l-2.8,0.7L263.9,597z"/>
<path class="st0" d="M282.9,600.9c1.3,0.5,1.8,0.5,1.3,0c-0.5-0.4-1.6-0.9-2.3-1C281.2,600,281.6,600.4,282.9,600.9z"/>
<path class="st0" d="M516.4,59.6c0.8,0.8,2.3,1.7,3.4,2.2c1.9,0.7,1.9,0.6,0.8-0.9c-0.7-0.9-2.2-1.9-3.4-2.2
	C515.2,58.2,515.2,58.3,516.4,59.6z"/>
<path class="st0" d="M528.4,71.8c1,0.4,1.8,0.2,1.7-0.4c0-0.7-0.8-1.4-1.6-1.7c-0.7-0.3-1.4-0.2-1.7,0.4
	C526.6,70.6,527.3,71.4,528.4,71.8z"/>
<path class="st0" d="M549.3,92.9c2.1,1.8,2.7,1.9,1.3,0c-0.7-0.9-1.6-1.6-1.9-1.4C548.3,91.5,548.6,92.2,549.3,92.9z"/>
<path class="st0" d="M555.3,98.1c1.8,1.5,3.5,2.7,3.8,2.5c0.3-0.1-0.9-1.4-2.8-2.9c-1.8-1.5-3.5-2.7-3.8-2.5
	C552.3,95.3,553.5,96.6,555.3,98.1z"/>
<path class="st0" d="M562.3,104.7c2.3,3,3.7,3.9,4.2,2.7c0.3-0.7-5.2-5.9-5.9-5.6C560.4,101.8,561.2,103.2,562.3,104.7z"/>
<g>
	<path class="st0" d="M457,152.9c-1.9,2.2-3.3,2.5-4.2,1c-0.3-0.6-1.8-0.7-3.3-0.4c-3.7,0.9-18.3,9.3-20.3,11.6
		c-0.8,1.1-4.6,3.6-8.5,5.7c-6.8,3.6-7,3.8-12.1,13.6l-5.3,10l-7.6,2.3c-8.4,2.7-10.7,2.6-22.9-0.8c-4.4-1.2-10.7-2.3-14-2.5
		s-6.7-0.6-7.5-0.9c-5.2-1.7-10.3-2.6-16-2.6c-3.7,0-7-0.4-7.5-0.9c-1.6-1.5-22.3-5-35.8-6.1c-20.4-1.6-26.3-1.4-33.2,1.5
		c-3.3,1.3-5.4,2.5-4.6,2.5c1.1,0,1.1,0.3,0.1,1.5c-0.7,0.8-2.9,1.5-4.9,1.5c-2.7,0-3.2-0.3-2.1-1c2.2-1.4-1-1.3-10,0.4
		c-21.1,4.1-41,16.6-51.9,32.6c-4.7,6.9-6.7,10.5-5.2,9.6c0.6-0.4,1.1-0.2,1.1,0.4c0,1.8-3,7-4,7c-0.6,0-1,1.8-1,3.9
		c0,2.2-0.4,4.2-0.9,4.5c-0.4,0.3-1.1,3.1-1.5,6.3c-0.4,3.1-1,6.1-1.5,6.7c-1.1,1.5-2,11.7-0.9,11c0.4-0.3,0.8,0.5,0.8,1.8
		c0.4,18.4,1,26.6,2.4,33.2c2,9.1,9.1,24.2,11.8,24.9c1.2,0.4,1.8,1.5,1.8,3.3c0,4.1,7.4,14.4,13.3,18.5c2.7,1.9,5.8,4.4,7,5.6
		c6.8,6.7,39.7,20.5,41.7,17.4c0.4-0.8,2.1-0.5,5.2,0.9c3.3,1.4,5.3,1.8,7,1.1c1.2-0.4,6.3-0.9,11.2-1c21.3-0.5,37.7-7,55.5-22
		c7.9-6.7,19.3-20.9,18.9-23.6c-0.1-1.2,1.2-4.9,3-8.3s3.1-6.2,2.8-6.2c-0.2,0,0.2-2.6,0.9-5.7c0.7-3.2,1.1-6,0.9-6.3
		c-0.3-0.2-1.4,0.1-2.5,0.8c-1.8,1.2-1.9,1.1-1.2-1.5c1.1-4.3,0.7-7.6-1.3-9c-3.8-2.7-5.1-1-8.5,10.8c-1.6,5.7-5,14.6-7.5,19.8
		c-9.5,19.4-27.2,32.5-49.9,37.2c-18.3,3.8-37.3,1.2-55-7.6c-10.4-5.2-22.2-14.2-20.5-15.9c0.5-0.5,1-2.1,1-3.5v-2.4l2.6,2.4
		c2.6,2.4,2.6,2.4,1.5,0.1c-0.6-1.2-1.6-2.3-2.1-2.3c-0.6-0.1-1.4-0.2-1.9-0.3c-0.5,0-1.3-0.4-1.7-0.9c-1.8-1.7-2.5-0.5-1,1.8
		c2.2,3.4,0.3,3.2-2.3-0.3c-2.5-3.2-2.7-3.4-6.9-6.8c-3.4-2.8-7.6-9.7-6.5-10.8c0.4-0.3-0.1-1.2-0.9-1.9c-2.5-1.9-6.9-16.2-7.5-24.1
		c-0.5-6.9-0.4-7,1.1-4.3c2.6,4.7,5.4,15.1,4.9,17.9c-0.3,1.4,0,3.4,0.6,4.5c1,1.7,1,1.7,1.1-0.2c0-1.3,1.6,0.4,4.6,5
		c2.6,3.8,4.3,5.9,3.9,4.5c-0.4-1.3-1.6-3.6-2.6-5c-2.1-3-4.5-10.7-5.4-17.4c-0.4-3.2-1-4.5-1.5-3.6c-0.6,0.9-1.2,0.1-1.9-2.6
		c-1.5-5.6-1.1-13.1,0.8-15.7c0.9-1.2,2.5-4.7,3.5-7.7c4-11.8,7.4-17.6,14.1-23.9c3.6-3.3,7.2-6.1,8-6.1s1.5-0.4,1.5-0.9
		c0-1,3.2-2.3,6-2.6c0.8,0,3.5-1,6-2.2c5.7-2.7,17.4-3.5,37.3-2.5c8.1,0.4,14.8,0.4,15,0.1c0.1-0.4,3.4-0.2,7.2,0.2
		c3.9,0.5,8.2,0.7,9.6,0.4c1.6-0.4,5.7,0.6,11,2.6c4.6,1.7,11.8,4.2,15.9,5.6c4.1,1.4,10.7,3.6,14.5,5c8.1,2.8,18.4,6.3,20.5,7
		c1.1,0.3,1.2,0.6,0.1,1.2c-1,0.7-0.9,0.9,0.3,1.4c0.8,0.3,2.2,0,3-0.8c1.8-1.9,4-1.9,5.5-0.1c0.9,1,0.7,1.7-0.5,2.7
		c-2.4,1.9-6.5,8.8-6.9,11.3c-0.2,1.2-1.1,4-1.9,6.4c-0.9,2.4-1.4,4.8-1,5.3c0.3,0.6,0.7,5.2,0.8,10.4c0.2,7.9,0,9.3-1.1,8.3
		c-1.1-0.9-1.2-0.7-0.6,0.8c0.3,1,1,2.1,1.4,2.4c0.5,0.3,0.5,3,0,6s-0.7,5.9-0.4,6.3c0.4,0.7,1,8.9,1.3,17.7
		c0.2,3.9-1.9,28.7-2.5,30.2c-0.7,1.8,2.9,10.5,4.2,10c0.4-0.1,0.9,0.6,1.1,1.8c0.2,1.2-0.1,1.9-0.9,1.8c-1.4-0.3-2,2.3-4.4,22.7
		c-0.9,7.7-1.9,15.1-2.2,16.4c-0.4,1.7-0.2,2.2,0.6,1.7c0.7-0.5,1.1,0,1.1,1.3c0,1.2-0.5,2.1-1.1,2.1s-0.8,0.9-0.4,2s0.2,2-0.4,2
		s-1.1,1.2-1.1,2.6s-0.7,3.2-1.6,4.1c-1,1-1.3,2.5-0.9,4.2c0.4,2.1-0.5,4.1-4.4,9.6c-2.7,3.9-6.4,8.5-8.2,10.4
		c-1.9,1.8-3.4,3.8-3.4,4.3s-2.1,1.1-4.7,1.3c-2.6,0.1-6.2,1.1-8,2.2c-2.8,1.6-5.1,1.9-13.8,1.8c-5.8-0.1-10.8,0.3-11.1,0.8
		c-0.4,0.5-1.8,0.2-3.2-0.7c-1.5-1-2.8-1.3-3.1-0.7c-0.8,1.2-3.3,0.9-15.1-2.3c-12.5-3.4-19.1-6.4-24.2-11c-2.2-2-4.7-3.6-5.6-3.6
		c-0.9,0-2.2-0.9-3.1-2.1c-1.6-2.3-8.7-7.5-8.5-6.2c0.1,0.4,0.1,1.7,0,2.8c-0.1,1.6-0.7,1.4-3.9-1.8c-4.6-4.5-6.2-4.7-6.2-0.8
		c0,5.9,16.3,20.7,31,28.1c11.7,5.9,32.2,11.3,42.3,11.2c2.1-0.1,3.5,0.3,3.2,0.9c-1,1.6,0.6,4.9,2.3,4.9c1.5-0.1,1.4-0.3-0.2-1.5
		c-1.9-1.4-1.8-1.5,1-1.5c1.6,0,4-0.7,5.2-1.6c1.2-0.8,3.5-1.4,5-1.3s6-0.3,9.9-1c8.5-1.5,10.3-1.2,7.9,1.2s-6.5,3.2-8.9,1.8
		c-1.4-0.9-2.2-1-3-0.2s-0.7,1.1,0.3,1.1c2,0,0.6,1-3.7,2.6l-3.8,1.5l3.4-0.6c1.8-0.3,5.8-0.5,8.7-0.5c4,0,5.4-0.4,5.4-1.4
		c0-2,5.5-3.5,12-3.3c4.9,0.2,6.4-0.3,13.5-4.4c12.2-6.9,12.8-7.3,14.3-8.6c1.2-1.2,1.9-1.4,3.7-1.3c0.3,0,1.7-1.3,3.1-3
		c1.4-1.6,3.1-3,3.7-3c0.7,0,3-1.6,5.1-3.5c2.2-1.9,4.3-3.5,4.6-3.5c1.1,0,9-11.7,8.4-12.3c-0.3-0.3,0.2-1.9,1-3.6
		c0.9-1.6,1.6-4.3,1.6-5.8c0-1.6,1.6-5.3,3.5-8.3c1.9-3.1,3.7-7.5,4.1-10c0.3-2.5,1.3-6.8,2.1-9.5c2.6-8.7,2.3-8.1,3.3-6.5
		c0.7,1.1,1,1.1,1,0.2c0-0.7-0.7-1.5-1.5-1.8c-1.4-0.6-1.2-4.1,0.4-6.9c0.3-0.6,0.4-4,0.2-7.8c-0.2-4.5,0.1-6.7,0.8-6.7
		c0.9,0,0.9-0.6,0-2.2c-0.9-1.7-0.9-2.4,0.5-3.3c0.8-0.7,1.3-1.4,1.1-1.7c-0.3-0.3-0.4-3.1-0.4-6.4c0.3-11.4,0.1-43-0.3-47.9
		c-0.3-3.8-0.8-5.2-2.4-5.9c-2.4-1.1-4.5-5.2-3.7-7.2c0.6-1.6-6.5-16.5-8.4-17.7c-0.7-0.4-1.3-1.3-1.3-2c0-2.8-5-11.7-6.2-11.2
		c-0.7,0.3-2.1-0.9-3.1-2.6c-0.9-1.7-2.5-3.3-3.5-3.6c-1-0.2-2.3-1.3-3-2.4c-1.1-1.8-0.9-1.9,3.5-2.1c2.7,0,5.5-0.1,6.3,0
		c6.4,0.4,12.1,0.3,15.4-0.3c2.4-0.5,4-0.4,4.5,0.3c0.6,1,12.5-1.6,21.6-4.7c1.7-0.6,5.6-1.8,8.9-2.7c6.8-2,31.3-13.8,38.9-18.7
		c5-3.3,8.2-5.1,13.8-7.7c1.4-0.6,4.8-2.9,7.5-5.1c2.7-2.1,6.3-4.6,8-5.4c2.9-1.3,6.4-6.9,5.1-8.1c-0.3-0.4,0.7-1.7,2.3-3.1
		c1.6-1.3,3.2-3.2,3.5-4.2c0.3-1.1,1.4-2.1,2.4-2.4c1.1-0.2,3.3-2.9,5-5.8c4-7,4.4-15.7,0.8-21c-2.3-3.5-8.4-8.2-9.6-7.4
		c-0.4,0.2-3.6-0.5-7.2-1.6c-7.2-2.3-22.7-4-23.2-2.5c-0.5,1.4-21.5,1.4-27.2-0.1C458.5,150.6,459,150.5,457,152.9z M447.3,176.9
		c0,0.5-0.2,1-0.4,1c-0.3,0-0.8-0.5-1.1-1c-0.3-0.6-0.1-1,0.4-1C446.8,175.9,447.3,176.3,447.3,176.9z M453.7,177.4
		c-0.4,0.8-0.8,1.5-1,1.5s-0.4-0.7-0.4-1.5s0.4-1.5,1-1.5C453.8,175.9,454,176.6,453.7,177.4z M436.5,179.7c-0.7,0.2-1.2,1-1.2,1.9
		c0,2-2.4,1.1-2.8-1c-0.4-2,4-4.2,4.7-2.4C437.4,178.8,437.1,179.5,436.5,179.7z M469.6,181.4c0.9,0.4,1.7,1.1,1.7,1.7
		c0,0.5,0.6,0.6,1.3,0.1c1.6-1.1,7.7-1.2,7.7-0.1c0,0.4,0.8,0.8,1.8,0.8c2.8,0.1-2.9,2.9-6,3c-2.1,0-2.5,0.4-2.1,2
		c0.4,1.4-0.1,2.2-2,2.9c-1.4,0.5-2.8,1.4-3.1,1.9c-0.3,0.4-2.4,1.5-4.6,2.2c-3.9,1.3-4.1,1.6-3.6,4.3c0.5,2.3,0.3,2.7-0.7,1.9
		c-1.5-1.3-9.7-0.4-9.7,1c0,0.6-0.9,0.8-2,0.5s-2-0.1-2,0.4s-1.3,0.9-2.9,0.9c-1.7,0-3.3,0.5-3.7,1.1c-0.5,0.8-0.8,0.8-1.3,0
		c-0.4-0.6-4.7-1.4-9.7-1.7c-6-0.4-9.5-1.1-10.6-2.1c-1-0.9-1.8-1.1-1.8-0.5c0,0.5-0.9,0.8-2,0.5c-1.9-0.5-1.9-0.7-0.5-2.3
		c0.8-0.9,1.5-2.1,1.5-2.6s1.6-3.3,3.6-6.2c2.8-4.2,3.9-5.2,5.5-4.7c1.5,0.5,1.7,0.3,1.2-1.1c-0.4-1.1,0.1-2.2,1.2-3
		c2.6-1.9,3.5-1.7,3.5,0.7c0,1.1-0.4,1.8-0.9,1.5c-0.4-0.3-0.6,0.5-0.4,1.9c0.4,1.6,1,2.2,2,1.8c0.8-0.3,1.2-1.1,0.9-1.8
		c-0.7-1.9,0.5-2.7,2-1.4c1,0.8,1.8,0.7,2.9-0.5c2-1.9,2.6-2,5.9-0.4c2.3,1,2.9,0.8,4.6-1.2c1.6-1.8,2.3-2,3.4-1.1
		c0.8,0.7,1.7,0.8,2,0.3c0.2-0.4,1.9-0.7,3.5-0.6c1.7,0.1,3.4-0.2,3.7-0.7C460.5,179.8,466.5,180.2,469.6,181.4z M521.7,192.1
		c-1.3,2.4-3.7,4.8-4.7,4.8c-0.6,0,0.2-1.4,1.8-3C521.9,190.7,522.9,190.1,521.7,192.1z M250.6,219.6c-0.7,0.2-1.9,0.2-2.5,0
		c-0.7-0.3-0.2-0.5,1.2-0.5S251.2,219.3,250.6,219.6z M293,222.6c0.8,2.3-1.9,2.4-7.9,0.2c-8.9-3.1-8.9-3.6-0.1-2.4
		C289.2,221,292.8,222,293,222.6z M208.7,235.1c-2.7,2.9-6.5,6.5-8.5,7.9c-3.3,2.5-6.9,8.9-6.9,12.3c0,2.4-3.9,10.6-5,10.6
		c-2.4,0-2.1-3.5,1.1-10.7c3.5-8,11-18.3,13.4-18.3c0.8,0,1.8-0.7,2.2-1.5c1-1.7,7.6-6.5,8.2-5.9
		C213.4,229.7,211.4,232.2,208.7,235.1z M336.4,234.1l6.4,2.3l-4.8,0.3c-2.9,0.2-6-0.3-7.9-1.2c-1.7-0.9-4.1-1.7-5.2-1.7
		c-1.8-0.1-0.1-0.8,4.5-1.8C329.7,232,332.8,232.9,336.4,234.1z M414.3,249.9c-1.9,1.3-3,1.3-3,0c0-0.6,1-1,2.3-1
		C415.4,248.9,415.5,249.1,414.3,249.9z M408.4,301.2c-0.8,0.8-1.1,0.3-1.1-1.9c0.1-2.5,0.2-2.7,1.1-1.1
		C409.2,299.6,409.2,300.4,408.4,301.2z M413.3,362.9c0,0.5-0.4,1-1,1c-0.5,0-1-0.5-1-1c0-0.6,0.5-1,1-1
		C412.9,361.9,413.3,362.3,413.3,362.9z M405.7,408.2c-0.4,2-0.9,2.6-1.7,1.8c-1.1-1.1-1.2-6.4-0.1-8.3
		C405.1,399.9,406.5,404.8,405.7,408.2z M396.9,427.1c0.7,1.1-4.4,6.4-5.2,5.5c-0.6-0.6,2.9-6.7,3.8-6.7
		C395.9,425.9,396.5,426.4,396.9,427.1z M382.3,444.9c0,0.5-0.5,1-1.1,1c-0.5,0-0.7-0.5-0.4-1c0.3-0.6,0.8-1,1.1-1
		C382.1,443.9,382.3,444.3,382.3,444.9z M364.1,461.1c-1.5,2-3.8,3.5-5.8,3.9c-1.8,0.4-4.5,2.1-6.1,3.8c-3.3,3.7-7.9,4.3-7.9,1.1
		c0-1.1,0.6-2,1.3-2c0.7,0,3.9-1.4,7.1-3.1c3.1-1.7,6.3-3.2,7-3.3c0.7-0.1,2.1-0.9,3-1.9C365.7,456.6,366.7,457.8,364.1,461.1z"/>
	<path class="st0" d="M277.1,272.8c-0.6,1-1.7,1.7-2.4,1.4c-0.6-0.2-2.5,1.3-4,3.4c-1.6,2.1-3.9,4.7-5.1,5.8c-2,1.9-2.1,2.5-1.1,6.3
		c0.8,3.2,0.7,4.6-0.2,5.7c-1,1.2-0.6,2.1,2.1,5.2c4.9,5.7,8.2,8.4,9.2,7.4c0.5-0.5,2.1-0.2,3.7,0.6c2.7,1.3,3.4,1.2,8.3-1.1
		c6.2-3,8.3-5,9.2-8.9c0.4-1.5,1.1-3,1.6-3.2c1.2-0.8-0.1-3.5-1.7-3.5c-0.8,0-1.4-0.9-1.4-2c0-2.2-4-10.4-5.2-10.8
		c-0.5-0.1-1.2-0.2-1.8-0.2c-0.5,0-1-0.5-1-1c0-0.6,0.7-1,1.6-0.8c1,0.2,1.9-0.3,2.2-1.1c0.3-1,0-1.2-1.2-0.8
		c-1,0.4-1.6,0.1-1.6-0.8c0-1-1-1.5-3.1-1.5c-1.7,0-3.9-0.5-4.9-1C278.8,271.1,278.1,271.3,277.1,272.8z M286.3,276.4
		c-0.7,0.8-1.7,1.2-2.2,0.9c-0.6-0.4-0.5-1,0.3-1.5C286.6,274.4,287.7,274.8,286.3,276.4z"/>
	<path class="st0" d="M189.5,279.9c0,1.4,0.2,1.9,0.5,1.2c0.2-0.6,0.2-1.8,0-2.5C189.7,278,189.5,278.5,189.5,279.9z"/>
	<path class="st0" d="M353.3,288.4c0,0.2,1,1,2.3,1.6c2,1.1,2.1,1.1,0.8-0.4C355.1,288,353.3,287.3,353.3,288.4z"/>
	<path class="st0" d="M194.4,316.3c0.7,1.5,1.5,2.3,1.7,1.6c0.3-0.7-0.3-1.9-1.3-2.8C193.3,313.5,193.2,313.6,194.4,316.3z"/>
	<path class="st0" d="M325,333.2l-1.8,3.2l2.1-2.1c1.3-1.2,2.1-2.7,1.9-3.3C327,330.4,326,331.4,325,333.2z"/>
	<path class="st0" d="M321.2,338.6c-1.3,1.6-1.2,1.7,0.4,0.4c1.6-1.3,2.1-2.1,1.3-2.1C322.7,336.9,321.9,337.7,321.2,338.6z"/>
	<path class="st0" d="M222,344.8c-1.7,0.6-1.7,0.8-0.3,2c1.6,1.4,4.6,0.9,4.6-0.8C226.3,344.7,224.1,344.1,222,344.8z"/>
	<path class="st0" d="M236.7,348.4c2.2,1.7,4,2,3.2,0.6c-0.3-0.5-1.6-1.1-2.8-1.4C234.9,347,234.9,347.1,236.7,348.4z"/>
	<path class="st0" d="M233.3,350.3c0,0.2,0.7,0.7,1.6,1c0.8,0.3,1.2,0.2,0.9-0.4C235.2,349.9,233.3,349.5,233.3,350.3z"/>
	<path class="st0" d="M299.1,351.6c0.7,0.3,1.6,0.2,1.9-0.1c0.4-0.3-0.2-0.6-1.3-0.5C298.6,351,298.3,351.3,299.1,351.6z"/>
	<path class="st0" d="M290.1,352.6c0.7,0.3,1.6,0.2,1.9-0.1c0.4-0.3-0.2-0.6-1.3-0.5C289.6,352,289.3,352.3,290.1,352.6z"/>
	<path class="st0" d="M236.8,355.9c0.3,0.4,1.4,1,2.5,1.3s1.8,0.2,1.5-0.3c-0.3-0.4-1.4-1-2.5-1.3
		C237.2,355.3,236.5,355.4,236.8,355.9z"/>
	<path class="st0" d="M271.3,360.9c0,0.5,0.5,1,1,1c0.6,0,1-0.5,1-1c0-0.6-0.4-1-1-1C271.8,359.9,271.3,360.3,271.3,360.9z"/>
	<path class="st0" d="M260.3,361.5c0,0.9,4,2.3,4.4,1.5c0.3-0.5-0.5-1.1-1.9-1.3C261.4,361.4,260.3,361.3,260.3,361.5z"/>
	<path class="st0" d="M231.3,451.3c0,0.2,0.8,1,1.8,1.7c1.5,1.3,1.6,1.2,0.3-0.4S231.3,450.5,231.3,451.3z"/>
	<path class="st0" d="M235.3,454.3c0,0.2,0.8,1,1.8,1.7c1.5,1.3,1.6,1.2,0.3-0.4S235.3,453.5,235.3,454.3z"/>
	<path class="st0" d="M245.8,465.9c0.3,0.5,0.8,1,1.1,1c0.2,0,0.4-0.5,0.4-1c0-0.6-0.5-1-1.1-1C245.7,464.9,245.5,465.3,245.8,465.9
		z"/>
	<path class="st0" d="M248.8,469.9c0.3,0.5,1.1,1,1.6,1c0.6,0,0.7-0.5,0.4-1c-0.3-0.6-1.1-1-1.6-1
		C248.6,468.9,248.5,469.3,248.8,469.9z"/>
	<path class="st0" d="M291,477.6c-0.4,0.3-0.7,1.3-0.7,2.1c0,1.2,0.3,1.2,1.5,0.2c0.8-0.7,1.5-1.6,1.5-2.1
		C293.3,476.7,291.9,476.6,291,477.6z"/>
	<path class="st0" d="M315.1,477.6c0.7,0.3,1.6,0.2,1.9-0.1c0.4-0.3-0.2-0.6-1.3-0.5C314.6,477,314.3,477.3,315.1,477.6z"/>
	<path class="st0" d="M281.3,481.9c0,0.6,0.7,1,1.5,1s1.5-0.2,1.5-0.4c0-0.2-0.7-0.6-1.5-1C282,481.2,281.3,481.4,281.3,481.9z"/>
	<path class="st0" d="M300.1,481.6c0.7,0.3,1.6,0.2,1.9-0.1c0.4-0.3-0.2-0.6-1.3-0.5C299.6,481,299.3,481.3,300.1,481.6z"/>
</g>
<g>
	<path class="st0" d="M146.6,91.3c2.2-1.8,0-2.7,0.1-3.3C143.6,91.7,147.1,91.6,146.6,91.3z"/>
	<polygon class="st0" points="118.4,128.8 118.2,127.7 115.7,134.4 	"/>
	<path class="st0" d="M93.9,164.7c2.6-0.9,4.5-4.2,6.4-8.2c0.5-1,1-2,1.5-3l0.7-1.5c0.3-0.5,0.6-1,0.8-1.5c1.1-1.9,2.4-3.7,3.7-5.1
		l1.4-0.6l-0.4-4.5c-1.2,2-2.5,4.2-3.8,6.5s-2.6,4.5-3.7,6.8C98.3,158,96,162.1,93.9,164.7z"/>
	<path class="st0" d="M76.1,181.8c1.9-0.7-1.2,5.1,2.8-4.8c-0.4,0.4-0.5,0.5-0.8,0.7C77.8,178.6,77.2,179.8,76.1,181.8z"/>
	<path class="st0" d="M78.2,177.8C80.2,173.5,75.8,180,78.2,177.8L78.2,177.8z"/>
	<path class="st0" d="M69.9,197.8l1.3-6.2c-1.3,0.9-3.6,5.9-3.4,3.7C66,201.5,67.3,200.6,69.9,197.8z"/>
	<path class="st0" d="M70.1,204.1c0.2-1.1,0.4-2.1,0.7-3.1C70.3,201.4,69.8,202.1,70.1,204.1z"/>
	<path class="st0" d="M72.4,194.4l-1.6,6.6c0.9-0.6,2-0.2,0.8-3C72.4,198.9,72,197.3,72.4,194.4z"/>
	<path class="st0" d="M74.4,191.1c1-1.4,2.1-3.1,2.8-3.6c0.7-0.5,0.8,0,0.2,3.1c2.2-5.4,2.7-7.9,1.9-7.8c-0.4,0.1-1,0.8-1.9,2.2
		C76.5,186.3,75.4,188.3,74.4,191.1z"/>
	<path class="st0" d="M96,168.4c1-1.1,2-2.3,3.1-3.3l1-3.9c-0.3,1-1.6,2.7-2.7,4.2S95.5,168.3,96,168.4z"/>
	<path class="st0" d="M55.6,233.5c0.6,0.6,2.5-1.5,3.5-1.6c0.1-1.5,0.3-3.1,0.5-4.6C58.4,229.4,56.8,233.5,55.6,233.5z"/>
	<path class="st0" d="M59.2,231.9l-0.5,6.9C60.4,233,60.1,231.8,59.2,231.9z"/>
	<polygon class="st0" points="73.4,206.6 73.7,203.8 74.2,201 75.1,195.4 73.8,202 73.5,203.6 73.2,205.3 72.7,208.6 	"/>
	<path class="st0" d="M49.6,259c-0.3-1.4-0.6-2.8-0.9-4.1l0.6,3.6l0.7,3.7L49.6,259z"/>
	<path class="st0" d="M47.2,276.2c-1.1-3.1-2.9,3.6-3.4,0.5c-0.3,4.8,0.4,8.9,1.2,12.6C44.7,285.4,45.4,281.3,47.2,276.2z"/>
	<path class="st0" d="M46.2,295.5c-0.2-1.9-0.7-4-1.2-6.2C45.2,291.3,45.5,293.4,46.2,295.5z"/>
	<path class="st0" d="M55.6,249.9c-0.6,0.4-1.9,1.1-3.2,4.8l2.7-2.2C55.2,251.7,55.4,250.8,55.6,249.9z"/>
	<path class="st0" d="M55.1,252.4L55.1,252.4c-0.7,2.9-1.2,4.8-1.4,5.7C53.9,257.4,54.3,255.7,55.1,252.4z"/>
	<path class="st0" d="M55.8,249.2c-0.1,0.2-0.1,0.4-0.1,0.7C55.9,249.7,56,249.5,55.8,249.2z"/>
	<path class="st0" d="M65.7,222.5c-0.1,4.1-1.3,12.2,2.8,5.3C68,224.6,65.7,228.6,65.7,222.5z"/>
	<path class="st0" d="M59.1,246.6c0.7-2.3,1.5-4.5,2.2-6.8c-0.6,0-1.7,1-1.8-1C59.4,241.4,59.1,244,59.1,246.6z"/>
	<polygon class="st0" points="59,250.2 59.1,246.6 58.3,249.2 	"/>
	<path class="st0" d="M49.3,283.3c0.3,1.6,0.3,3.2,0.3,5c0,1.7,0,3.5-0.1,5.4c0.4-2,0.6-4.1,1-6.2c0.3-2.1,0.6-4.1,0.9-6.1
		C50.7,280.8,49.7,278.9,49.3,283.3z"/>
	<path class="st0" d="M51.9,268.2c0,0.2,0,0.5,0,0.7C52.2,268.6,52.3,268.2,51.9,268.2z"/>
	<path class="st0" d="M48.9,331.4c0.1-0.2,0.3-0.4,0.4-0.6c-0.1,0-0.2-0.1-0.4-0.1V331.4z"/>
	<path class="st0" d="M51.8,280.8c0.8-3,0.5-4.9,0-6.7c-0.1,2.3-0.2,4.8-0.5,7.4C51.6,281.8,51.8,281.8,51.8,280.8z"/>
	<path class="st0" d="M46.6,306.1c0.2-0.8,0.5-1.7,0.7-2.5c0.2-0.9,0.5-1.8,0.7-2.8c-0.4,0.8-0.9,1.9-1.2,3
		C46.5,304.9,46.3,305.8,46.6,306.1z"/>
	<path class="st0" d="M51.2,269.9c0-0.2,0-0.3,0-0.5C50.5,270.3,50.8,270.3,51.2,269.9z"/>
	<path class="st0" d="M51.2,269.9c0,1.6,0.4,2.9,0.6,4.2c0.1-1.9,0.2-3.6,0.1-5.2C51.7,269.3,51.4,269.6,51.2,269.9z"/>
	<path class="st0" d="M63.3,341.6c-1-0.2-2.1-2.2-2.8-5c-0.3-1.4-0.6-3-0.6-4.7s0.3-3.5,0.8-5.2c-1.7-6.6-8.1-2.2-11.5,4
		c0.9,0.2,1.5,0.2,3.3,7.1c0.5-1.3,0.7-5.2,1.4-8c0.6-2.9,1.4-4.6,2.4-1.8c0.3,2.3,0.4,3.9,0.5,5.1s0,2-0.2,2.7
		c-0.3,1.3-1,2.1-1.3,4.3c1.1-2,2.2,0.9,3.5,3.9c1.2,3,2.9,6.2,4.6,5c-0.8-2.6-1.4-5.2-2-7.8C61.9,341.1,63,343.9,63.3,341.6z"/>
	<path class="st0" d="M49.1,317.3l-0.2-2.9c-0.2,1.7-0.6,3.1-0.9,4.6c-0.4,1.6-0.9,3.3-1.6,5.5c1.1,4.9,1.9,5.8,2.5,6.1l-0.1-7.2
		v-3.6V318l0.1-1.8L49.1,317.3z"/>
	<path class="st0" d="M49.3,301.3c0.5,0.6,0.9,1.5,1.3,2.4c0.4,0.9,0.8,1.9,1.2,2.6c0.8,1.5,1.6,2.2,2.8,0.1c0-1.1,0-1.9-0.1-2.7
		c0-0.7-0.1-1.4-0.1-1.9c-0.1-1-0.3-1.7-0.6-2.2c-0.5-1.1-1.1-1.7-1.4-4.3c-0.4,13.7-0.9-4-2.8,5.8c-0.2-2.7-0.1-5.2-0.1-7.5
		c-0.4,2.5-0.9,4.8-1.5,7.1c0.1-0.1,0.1-0.2,0.2-0.3v-0.1l0,0c0.3-0.6,0.5-0.8,0.3-0.1c0,0,0,0.2,0,0.3
		C48.8,300.7,49,301,49.3,301.3c-0.7,4-0.6,0.6-0.8-0.7c-0.1-0.1-0.2-0.2-0.3-0.2c0,0,0,0,0,0.1c0,1.2,0,2.3,0.1,3.5l0.2,3.5
		l0.4,6.9c0.2-1.5,0.3-3.1,0.3-5.2c0-1,0-2.2,0-3.5c0-0.7,0-1.3,0-2.1C49.2,302.9,49.3,302.1,49.3,301.3z"/>
	<path class="st0" d="M71,235.9c-0.3,0.3-0.4,0.3-0.6,0.3C70.4,237.1,70.5,237.5,71,235.9z"/>
	<path class="st0" d="M68.3,240.9c0-1-0.7-2,0.4-5c1.3-2.5,1,0.3,1.7,0.3c-0.1-2,0.3-6.9-2.3-1.4v1c-2.1,5-6.5,11.2-6.6,10.2
		C63.8,244.9,65.5,243.9,68.3,240.9z"/>
	<path class="st0" d="M57.8,270.8c-0.3,3.8-0.4,7.6-0.4,11.3l2.5-5.5l-1.1,0.1c0.3-1.6,0.5-2.7,0.5-3.5s0-1.3-0.2-1.6
		C58.7,271.2,58.1,271.3,57.8,270.8z"/>
	<polygon class="st0" points="47.8,332.8 45.5,331.3 46.4,333 47.3,334.6 49.2,337.8 	"/>
	<path class="st0" d="M49.2,347.7l-2-0.4c0.5,1.3,1.1,2.6,1.6,3.8L49.2,347.7z"/>
	<path class="st0" d="M628,399.6l0.4-3.1C628.2,397.9,628.1,398.8,628,399.6z"/>
	<path class="st0" d="M620.5,420.9l0.7,0.9C621.1,420.6,620.9,420,620.5,420.9z"/>
	<path class="st0" d="M272.4,613.7c4.3,3,9,7.3,8.9,4.9l-0.9-2.5C277,615.6,274.5,614.7,272.4,613.7z"/>
	<path class="st0" d="M509,569.9c-0.5,0.1-1,0.1-1.5,0.2c-0.6,1.2-1.2,2.3-1.7,3.4C506.7,572.3,507.9,571.2,509,569.9z"/>
	<path class="st0" d="M507.1,560.5l5.9-2.1C511.5,558.7,509.6,559.4,507.1,560.5z"/>
	<path class="st0" d="M635.2,277.6c-0.9-1.1-1.7-2.2-2.7-3.2c0.3,1.4,0.4,2.3,0.6,2.8c0.2,0.5,0.4,0.8,0.6,0.8
		C634.2,278,634.7,277.4,635.2,277.6z"/>
	<path class="st0" d="M102,490.3c1.8,4,3.4,7,5.1,9.5C105.1,494.8,104.3,490.4,102,490.3z"/>
	<path class="st0" d="M647.1,415.4c0.3-2.1,0.1-3.1-0.4-3.2C646.5,414.4,646.5,415.6,647.1,415.4z"/>
	<path class="st0" d="M114.6,509.6c-0.3-0.7-0.7-1.4-1-2.1c-1.1-1.1-2.2-2.2-3.3-3.5c-1.1-1.2-2.2-2.6-3.3-4.2
		c0.7,1.9,1.7,3.7,2.9,5.4C111.2,506.8,112.8,508.4,114.6,509.6z"/>
	<path class="st0" d="M314.5,36.5c-0.3,0-0.7,0-1-0.1C313.4,36.7,313.9,36.7,314.5,36.5z"/>
	<path class="st0" d="M182,66.3c1.1-0.9,2.9-2.2,4.6-3.5C185.7,63.3,184.2,64.3,182,66.3z"/>
	<path class="st0" d="M60.1,407.2C59.1,404.2,59.7,406.8,60.1,407.2L60.1,407.2z"/>
	<path class="st0" d="M64.3,390.1c0.4,0.6,0.8,1,1.4,0.9C65.1,390.9,64.7,390.6,64.3,390.1z"/>
	<path class="st0" d="M145.3,523.9c0.1,0.1,0.1,0.1,0.2,0.2C145.2,523.1,145.2,523.3,145.3,523.9z"/>
	<path class="st0" d="M59.8,402.3c0.1,1.2,0.2,2.6,0.5,4.1C60.2,405.7,60.1,404.5,59.8,402.3z"/>
	<path class="st0" d="M59,403.2c-0.2-1.1-0.4-1.9-0.5-2.8C58,400.1,57.8,400.6,59,403.2z"/>
	<path class="st0" d="M61.6,411.4c-0.6-1.7-1-3.4-1.4-5c0.1,0.6,0,0.9-0.1,0.8C60.5,408.1,60.9,409.3,61.6,411.4z"/>
	<path class="st0" d="M542.2,95.3c-0.1-0.2-0.3-0.4-0.4-0.6C538.9,93.5,540,94.3,542.2,95.3z"/>
	<path class="st0" d="M354.3,602.7c-0.1,0-0.2,0.1-0.3,0.1c0.1,0,0.3,0.1,0.4,0.1L354.3,602.7z"/>
	<path class="st0" d="M364.9,601c-4.4,2.8-7,2.7-10.5,1.9c1.2,2.1,2.3,4.2,3.5,6.3C360.4,606.5,362.7,603.7,364.9,601z"/>
	<path class="st0" d="M638.1,346.4l-2.8,7.1c-1.1-4.6-1.2-8.4-1.4-10.3c-0.1-0.9-0.3-1.4-0.7-1.2c-0.3,0.2-0.9,1-1.8,2.6
		c1.7,0.4,2.3,2.4,2.5,5.2c0.2,2.8-0.1,6.3-0.6,9.8s-1,7-0.9,9.8c-0.1,2.8,0.4,4.8,2,5.4l-2.4,4.5c0.4-1.3,0-1.6,0.4-3
		c-5.1,8.5,3.3,8-0.8,19.7c-0.4,1-0.8,1.9-1.3,2.7c-0.4,0.7-0.8,1.3-1.2,1.7c-0.7,0.8-1.1,0.6-1.1-0.9l-1.3,9.6
		c-0.5,1.3-1,1.7-1.2,1.4c-0.2-0.2-0.2-1.2,0.3-2.4l-0.5,1.7l-0.6,1.7l-1.1,3.4l-2.3,6.9l-0.1-0.2c0.2,1.2,0.1,3,0,4.8
		s-0.3,3.7-0.4,4.9c-2.4,3,0.1-2-1.1-1.5c-0.6,2.7-1.1,5.4-1.7,8.1c-1.5,1.1-1.9,0-1.6-2c0.2-2.1,1.1-5,2.3-7.5
		c-4.6,2.1-4.8,3.8-5.2,6.6c-0.5,2.8-1.1,6.8-6.5,13.1c0.9-2.3,1.7-4.8,2.6-7.1c-1.4,0.7-2.5,1.5-3.5,2.5s-1.8,2.2-2.8,3.4
		c-1.9,2.5-3.8,5.5-6.9,8.6c1-0.6,4.3-3.5,7.1-5.3s5-2.5,3.6,1.7c-1.7,1.9-3.4,4.6-4.5,9.4c-2.1-1.2-4,3-6.9,8l-2.5-2
		c-0.6,1.4-0.9,2.5-1.2,3.4c-0.2,0.9-0.3,1.6-0.3,2.2c0,1.3,0.2,2.4-0.3,4.3c-4.2,5.5-7,5.3-9.7,5.3c-3.5,4.2-1.6,3.3,0.3,2.7
		c1.9-0.6,3.8-1,0,4.4c-1.6,1.6-3,3.2-4.3,4.9c-1.3,1.6-2.6,3.2-3.7,4.9c-2.4,3.4-4.5,7.4-7.7,12c-5.2,4-0.7-2.2-2.9-1.1l-2.1,5.9
		c-1,1-1.3,0.1-1.4-0.3c-0.6,1.1-0.9,1.7-0.9,2.2s0.2,0.9,0.3,1.3c0.2,0.9,0.2,2-2.3,4.9c0.2,1-0.6,1.9-2,3c-0.7,0.5-1.6,1-2.5,1.6
		c-0.5,0.3-1,0.6-1.5,0.8c-0.5,0.3-1.1,0.5-1.6,0.8c-2.2,1.1-4.6,2.4-6.8,4c-2.1,1.6-3.9,3.5-5.2,5.7c-2.4,0.7-0.4-2.2-1.7-2.7
		c-4.2,5-6.1,7.1-7.7,9.1c-1.6,2-3,3.8-6.4,8.3l-4.3,1.8c-1.4,0.6-2.9,1.1-4.4,1.6c7-1.6,1.3,5.4-4,11.5c2.7-0.3,5-0.6,6.4-0.9
		l-4.8,4c-0.8,0.7-1.6,1.3-2.4,1.9l-2.5,1.9c-1.6,0.3-1-1.3,0.1-3.4c-0.6,0.6-1.2,1.3-1.6,1.8c-4.4,1.1-3.3-1.6-1.5-4.7
		c1.6-0.2,3.2-0.3,4.8-0.5c1.6-3.3,2.8-6.6,1.2-7.9c-0.5,0.7-1.6,1.8-2.9,2.8c0.4-0.9,0.6-1.5,0.1-1.6s-1.2,1.3-2.5,2.9l-4.2-1.7
		l0.1,1.5l-7.3,2.9c-1.2,0.5-2.4,0.9-3.7,1.3l-3.7,1.2c-2.1,2-4,4.2-6.1,6.3c-2.1,2-4.3,4.1-6.7,6.3c-1.2,1.1-2.5,2.1-3.8,3.2
		c-1.4,1.1-2.8,2-4.4,3s-3.2,2-5,3s-3.7,2-5.8,2.9c3.4-3.9-0.5-4.3-1.3-7.3c1.4,0.4,2.9,0.2,4.5-0.4c1.6-0.6,3.2-1.5,5-2.5
		c1.7-1,3.6-2.1,5.5-3.3s3.9-2.2,6.1-3c-4.5,1.6-4.1-0.2-3.2-1.1c-4.5,3.2-9.3,5.9-14,8.8c-0.3-1.3-1.2-1.4-2.7-1.1
		c-1.4,0.2-3.4,0.7-5.6,0.9c2.3,1.9-0.3,3.6-4.3,5.3c-1,0.4-2.1,0.9-3.2,1.3c-1.1,0.4-2.3,0.8-3.4,1.1c-2.2,0.8-4.3,1.5-5.9,2.3
		c-0.8-1.5,0.3-3.6,8.2-5.4c-4.8-0.6-7.2,1.5-9.6,3.8s-4.9,4.5-9.5,3.9c1.9-0.5,3.1-0.5,3.6-1.5c-2.1,1.2-6,2.2-9.1,2.6
		c-1.5,0.2-2.9,0.2-3.7,0c-0.8-0.2-1.1-0.5-0.5-0.9l1.9-0.4c-3.3,0.4-7.4,1-11.7,1.8c-1.1,0.2-2.2,0.4-3.3,0.5
		c-1.1,0.2-2.2,0.3-3.3,0.5c-2.2,0.4-4.4,0.7-6.6,1.2c-2.1,0.5-4.2,0.7-6.1,1.1c-1.9,0.4-3.6,0.8-5.1,1.2c-3,0.9-5,1.9-5.5,2.9
		c-0.2-0.5,1.5-5.2,2.2-6.1c-7.5,5.1-15.5,10.1-23.8,14.6c1.1-1.8-0.3-4.9-0.6-7.8c-0.3-2.9,0.6-5.6,6-6.5c-1.6-0.3-3.3-0.6-5.5-0.7
		c-2.2-0.1-4.8,0.1-8.1,0.4c1,0.3,2.3,1.7,3,3.1c0.6,1.3,0.7,2.6-0.8,2.7c-4-2.3-5.3-2.9-6.9-3.5c-0.8-0.3-1.7-0.6-2.9-1
		c-1.3-0.5-2.9-1.1-5.3-2.3c3.1,1.1-1,6.4-6.1,5.7c0.9-0.8,0.3-5.7,2.2-6l-6.6,2.1c-2.2,0.7-4.5,1.2-6.7,1.8
		c3.3-0.5,1.3-4.6-1.2-6.6c0.6,0.7-2.1,0.2-5.4-0.4c-3.2-0.7-7-1.7-8.7-1.8l4.9,2.4c-3.4-1-6.1-1.1-8.4-0.9
		c-1.2,0.1-2.2,0.3-3.3,0.6c-1,0.2-2,0.5-3,0.7c-2,0.5-3.9,1.1-6.3,1.3c-2.4,0.1-5.1,0-8.6-1.2c2-0.6,6.1-5.6-0.5-8.4
		c-1,0.4-2.6,1.2-4.7,2.1c-2.1,0.9-4.7,1.9-7.6,2.6c-2.9,0.7-6.1,1.3-9.4,1.6c-1.6,0.1-3.3,0.2-5,0c-1.7-0.1-3.3-0.4-4.9-0.8
		l-1.7-2.5c-3.3-0.8-6.7-1.5-10-2.4c3.7-0.5,10.6-1.3,17.6-1.8c3.5-0.2,7.1-0.7,10.4-1c3.3-0.3,6.3-0.5,8.7-0.6
		c-4.6-3-0.7-2.3-8.2-4.9c-2.1-2.4,4.8-0.7,7,0l-8.4-3.6l-2.1-0.9l-2-1l-4.1-2c-0.3,1.7-3.8,1.1-7.4,0.4c-3.5-0.8-7-1.8-7.3-0.4
		c6.5,2,13.2,3.4,19.7,5c-0.3,1.7-3.8,2.8-8.9,2.7c-1.3,0-2.6-0.1-4.1-0.3c-1.4-0.2-2.9-0.4-4.4-0.9c-3-0.8-6.1-2.1-9-3.7
		c-2.4-2.7,5-4.2,5.2-5.4c-0.5,0.1-1.5-0.1-2.8-0.4c-1.3-0.3-2.7-0.8-4.1-1.4c-2.8-1.2-5.5-2.6-5.8-3.3l5.7,1.1
		c-2.9-2.3-6-2.8-9.2-3.5c-1.6-0.4-3.2-1-4.7-1.8c-1.6-0.9-3.1-2.1-4.5-3.9c-0.6-0.4-1.3-1.2-1.9-2c-0.6-0.8-1.3-1.8-1.8-2.7
		c-1.1-1.8-2.2-3.1-3-2.5c1.9,5.9-3.7,16.5-8.1,16.9c-0.4-0.4-3.3-3.6-6.4-7c-0.8-0.9-1.5-1.7-2.3-2.6c-0.7-0.9-1.4-1.8-2-2.6
		c-1.2-1.7-2.2-3.1-2.6-4c-1.1-2.8,1.5-3,4.2-3.2c2.6-0.2,5.3-0.3,4.4-2.6c-0.7,0.6-3.6-0.2-4.7-0.6c-2.1-2.6,2.8-1.4-3-5.3
		c-3,1.9-10.6-9.4-4.3,0.1c-2.9-1.8-4.2-3.2-5.5-4.6c-1.3-1.5-2.7-3.1-5.7-5.8c0.2,1.7-2.4,1.8-5.8,1c-1.7-0.4-3.6-1.1-5.4-1.9
		c-0.9-0.4-1.8-0.8-2.7-1.3c-0.8-0.5-1.6-1-2.3-1.6c0.9-0.3,0.6-2.2,0.5-3.2c-2.4-2.6-4.5-5-6.4-7.3c-1.8-2.3-3.4-4.5-5-6.7
		s-3.2-4.3-4.9-6.5c-1.6-2.3-3.4-4.7-5.4-7.3c-0.1-0.7-0.9-2.5-1.3-3.9c-0.5-1.4-0.5-2.5,0.9-1.9c-1.6-1.2-3.5-1.9-5.9-5.2
		c-2.1-8.1,5.6,7.1,5,0.2c-0.9,0.4-3-1.4-5.4-3.7c-1.2-1.2-2.5-2.5-3.6-3.8c-1.2-1.3-2.3-2.6-3.4-3.7c-0.4,0.8-0.2,1.9,0.4,3.2
		c0.6,1.3,1.6,2.8,2.9,4.3c2.6,2.9,5.8,6,8,8c-1.7,1.3-4.9,0.5-8.9-2c-2-1.2-4.3-2.8-6.5-4.9s-4.5-4.5-6.9-7.3
		c-1.7-2.3-2.6-3.7-2.9-4.7s-0.2-1.4,0.1-1.7c0.6-0.4,1.8,0.1,1.1-0.6c-2.4-4.7-4.6-7.8-6.6-10.1c-1.9-2.4-3.6-3.9-5.2-5.4
		s-3.1-2.9-4.5-5c-0.7-1.1-1.3-2.3-2-3.9c-0.6-1.6-1.2-3.4-1.7-5.6c-0.4-7.5,4.8-2.4,5.9-4.6c2.3,3.9,3.3,7.3,4.1,10.4
		c0.9,3,1.6,5.8,3,8.5l-2.3-7.4c2.1,2.2,5.4,7.3,6.2,10.6c-0.1-1.6-1.1-4.3-2.7-7.8c-0.8-1.8-1.7-3.7-2.6-5.7
		c-0.9-2.1-1.9-4.3-2.8-6.7c-1-2.3-2.1-4.7-3-7.1s-1.8-4.9-2.6-7.3c-0.4-1.2-0.8-2.4-1.2-3.6c-0.4-1.2-0.8-2.3-1-3.5
		c-0.6-2.3-1.1-4.4-1.4-6.4c-1.7-2.4-4.2-6.8-4.5-4.3l1.9,4.7c-0.6,5.2-5.9-8.3-4.8-1.8c-0.5-0.8-0.9-1.5-1.4-2.3s-0.9-1.6-1.3-2.5
		c-0.9-1.7-1.8-3.4-2.6-5.3c-0.8-1.9-1.6-3.9-2.3-6c-0.6-2.2-1-4.5-1.2-6.9L63,381c-0.8,0.4-0.4,6.6,1.1,9.1
		c-1.1-1.8-0.9-5.7-1.1-9.6c-0.1-1.9-0.2-3.8-0.6-5.5c-0.4-1.7-1-3.1-2.2-4c-0.3,2.4-0.7,4.8-0.8,7.2c-0.8-1.6-1.6-3.4-2.4-5.2
		c-0.8-1.8-1.7-3.7-2.5-5.7s-1.6-4-2-6.2c-0.5-2.1-0.8-4.3-0.8-6.5c-2.5,4.4,0.6,2-2.1,8.7c1.7-3,2.6,2.6,3.5,7.8
		c0.4,2.6,0.8,5.1,1.4,6.3c0.6,1.2,1.1,1.2,1.8-1.1c-1.4,3.5-1.1,6.4-0.8,9.4c0.3,3.1,0.7,6.3,0.2,10.9c0.9-0.5,1.1-3.4,2.6,3.9
		c0.4,0.2,0.9,0.9,1.3,1.3c0,0.2,0,0.3,0.1,0.5c0-0.2,0-0.3,0-0.4c0.2,0.3,0.3,0.3,0-0.2c0-1.8,0.1-3.4,0.5-4.1
		c0.8,0.7,1.6,2,2.4,3.5c0.4,0.8,0.8,1.6,1.1,2.5c0.4,0.9,0.7,1.8,1.2,2.7c1.6,3.6,3.1,7.2,4.3,8.9c0.9,4.3-1.7-1.4-1.9,1.3l1.8,2.5
		l1.9,2.5c-1.9,1.3,0.7,12.2-4.3,3l3.3,8.8c0.2,1.4,0.6,2.9,1,4.4s1,3.1,1.5,4.6c1.2,3,2.4,5.8,3.9,7.7c1.6,4.2,7.2,8.9,3.9,6.2
		c1.3,2.1,2.6,4.2,3.9,6.2l4.2,6.1l-0.4,0.4c3.3,6.5,8.3,12.2,12.7,18.4c4.8,6,9.2,12.6,12.9,20.3c1.7,1.7,3.5,3.5,5.4,5.7
		c2,2.1,4.2,4.5,6.6,7.8l-0.4,2.5c2.3,2.2,5.2,5.9,8,9.2c2.7,3.3,5.3,6.2,7,6.4c0.3,2.1,1.8,4.5,4.1,7.1c1.1,1.3,2.4,2.6,3.8,4
		c1.4,1.3,3,2.6,4.6,3.9c1.6,1.3,3.3,2.6,4.9,3.8c1.6,1.3,3.2,2.5,4.9,3.6c3.2,2.3,6.1,4.4,8.2,6.2l1.8-1.8c0.7,0.6,1.5,1.2,2.3,1.7
		s1.6,1.1,2.4,1.6c1.6,1,3.2,2,5,3c1.7,1,3.5,2,5.4,3s3.9,1.9,6.1,3l0.7-2.2c3.9,1.3,8,4.5,12.8,7.7c2.4,1.7,4.9,3.4,7.5,5.2
		c2.6,1.6,5.5,3.2,8.4,4.5c-1.2,0.4-4-1.2-5.8-2.7c2.9,2.8,6.2,4.9,9.8,6.6c3.6,1.6,7.6,2.7,11.4,3.7c3.8,1.1,7.7,1.8,11.3,3
		c3.6,1.1,7,2.6,10,4.4c3.5,0.3,5.8,1.3,8,2.6c-0.3-0.1-0.6-0.1-0.9-0.1c0.3,0.1,0.8,0.3,1.3,0.5c0.7,0.4,1.3,0.9,2.1,1.3
		c0.7,0.4,1.5,0.8,2.2,1.2c-1.3-0.9-2.5-1.7-3.6-2.3c2.6,0.8,6.6,1.4,10.5,1.9l1,2.8c0.3,0.1,0.6,0.1,0.9,0.2
		c3.6,1.9,3.3-0.3,1.7-2.6c2,0.2,3.9,0,5.4-0.2c1.1,2.2,3.7,2.5,6.4,2.7c1.4,0.1,2.8,0.3,4,0.7c1.3,0.4,2.4,1,3.3,2.2
		c1.5-0.8,6.5-0.3,11.4-0.2c4.9-0.1,9.8-0.5,11-2.5c0.1,0.6,1.2,1-0.9,0.8c1.1,0.2,2.1,0.5,3.2,0.7c0.5,0.1,1.1,0.2,1.6,0.3
		s1.1,0.1,1.6,0.2c2.1,0.2,4.2,0.1,6.2-0.3l1.7,3.2l4.9-1.7l4.8-2c5.7,2,8.1,3.1,2.3,5.4c3.5-0.8,6-1.3,7.9-1.7s3.2-0.6,4.5-0.8
		c2.5-0.4,4.9-0.8,10.6-2.8l-0.5,2c4.2-0.4,10.7-3.5,13.4-2.1c2.4,0.7,6.5,0.7,11.8,0.3c1.3-0.1,2.7-0.2,4.1-0.4s2.9-0.4,4.4-0.7
		c3-0.5,6.3-1,9.6-1.6c13.3-2.7,28.2-6.5,40.3-8.9c-3.2-2-0.3-2.2,3.3-2.7c3.6-0.5,7.9-1.1,7.6-3.4c1.8,0.8,5.3,0.3,2,2.8
		c1.4-0.7,2.7-1.3,4-1.9c1.3-0.6,2.5-1.1,3.6-1.6c2.3-0.9,4.4-1.6,6.4-2.4c1-0.4,1.9-0.7,2.9-1.2c0.9-0.4,1.8-0.9,2.7-1.4
		c1.7-1.1,3.3-2.4,4.8-4.3c1.9,0.6-1.5,3,0,3.2c0.8-0.7,3-2.9,4.6-2.7c1.5,0.2-1.1,1.9-2.6,3.3c2.9-1.5,5-2.9,6.5-4.2
		c1.5-1.4,2.4-2.7,2.9-3.9c1-2.4,0.5-4.5-0.1-6.4c3.2-0.7,5.5-1.6,7.3-2.8c1.8-1.3,3-3,4.3-5.3c2.6-0.1,6.4-0.9,0.1,3.7
		c1-0.5,2.9-1.6,5.3-3c1.2-0.7,2.5-1.4,3.8-2.2s2.6-1.7,3.9-2.6c5.2-3.6,9.7-7.2,8.8-8.7c1.6-0.2,5-3.6,5.7-4.6
		c2-1.5,3.5-2.6,4.8-3.6s2.3-1.9,3.3-2.7c2-1.7,4-3.4,7.6-6.7l-2.4,1.4c0.1-2.7,1.6-4.1,3.5-5.7c1.9-1.6,4.5-3.2,7.2-6.1l0.1,0.4
		c3.7-2.6,5.7-4.4,7.1-5.7c1.3-1.3,1.8-2.1,2.4-2.9c0.5-0.8,1.1-1.6,2.4-2.8c0.7-0.6,1.5-1.4,2.6-2.3c1.1-1,2.4-2.1,4.2-3.6
		l-2.4-0.8c-1.4-2.3,1.6-4.7,5.7-7.8c4-3.1,8.9-7.1,11.2-11.7c-1.1,0.7-2.2,1.4-3.3,2.1c1-2.7,4.6-4.9,8.5-6.9
		c3.9-2.1,8.2-4,9.9-6.3c1-0.8-0.4,2.1-1.1,3.7c10.6-11.1-1.6-3.3,3.6-13.2c1.3-0.4,1.8,0.7,2.6,1.1c0.4,0.2,0.8,0.3,1.5-0.1
		c0.6-0.4,1.4-1.2,2.4-2.9c1.5-1.3,3-6.8,4.9-12.8c0.9-3.1,1.9-6.3,3.1-9.2c0.6-1.5,1.3-2.9,2.1-4.1c0.7-1.3,1.5-2.5,2.4-3.5
		c-2.1,1.6-4.1,3-3-2.1c0.7-1.9,1.8-3.9,3.1-6c0.7-1.1,1.4-2.2,2.1-3.3c0.7-1.1,1.3-2.3,2-3.4c1.3-2.3,2.4-4.7,3.2-6.9
		c0.4-1.1,0.7-2.2,0.8-3.3c0.1-1.1,0-2.2-0.2-3.2c0.6-0.8,1.1-1.1,1.4-1c0.2-1.5,0.6-3.5,1-5.6s0.9-4.5,1.2-6.8
		c0.6-4.6,1-8.9,0.4-10.9c2.4-0.8,3.7-3.6,4.7-7.3c0.9-3.7,1.4-8.2,1.5-12.5c0.1-2.2,0.2-4.3,0.3-6.2c0.1-2,0.3-3.7,0.5-5.2
		c0.4-3,1.3-4.9,3.2-4.6c0.3-3.1,0.6-6.2,0.8-9.2l0.4-9.3l0.7,0.5c0.2-1.5,0.3-2.8,0.4-4.1c0.1-1.3,0-2.4,0-3.5
		c-0.1-2.1-0.3-3.9-0.6-5.4c-0.6-3.1-1.4-5.1-2.4-7.2c0.4-2.7,1.2-0.7,1.6-0.5c0.5-8.6,0.8-13.4,0-17.8c-0.3-2.2-0.9-4.3-1.6-6.7
		c-0.4-1.2-0.7-2.5-1.3-3.9s-1.2-2.9-1.9-4.7l2.3-1.8c-0.5-0.9-0.7-3-0.8-5.8c0-1.4-0.1-3-0.2-4.7c-0.1-1.7-0.2-3.6-0.4-5.6
		c-0.1-2-0.3-4.1-0.5-6.2c-0.3-2.1-0.7-4.3-1.1-6.5c-0.4-2.2-1-4.4-1.6-6.5c-0.3-1.1-0.7-2.1-1.1-3.1c-0.4-1-0.8-2-1.3-3
		c0.3,0.1,0.9,0.3,1.6,1.5c-3.8-8.9-5.5-20.3-8.2-30c-0.7-2.4-1.4-4.7-2.1-6.9c-0.4-1.1-0.7-2.1-1.1-3.1c-0.4-1-0.9-1.9-1.4-2.7
		c-1.9-3.3-4.1-5.6-6.9-6.3l-1.8-2.6c-0.6-0.9-1.3-1.7-1.9-2.6l-3.8-5.1c3.3,7.4,2.1,7.2,0.4,6.1c-1.8-1.1-4.1-3.2-3.3,0
		c-1.6-2.7-2.8-6.6-3.2-9c-0.2-1.2-0.2-2,0.2-2.2c0.3-0.1,1.1,0.4,2,2.1l0.1,1.3c1.4,0.1,1.6-1,1.2-2.8c-0.4-1.7-1.6-4.1-2.8-6.4
		c-1.2-2.4-2.5-4.8-3.3-6.7c-0.4-1-0.7-1.8-0.8-2.4c-0.1-0.6,0-1,0.4-1.2c-2.2-3.4-4.3-6.7-6.4-10.1c-2.1-3.3-4.4-6.6-6.6-9.9
		c-1.1-1.6-2.1-3.3-3.3-4.9c-1.2-1.6-2.3-3.2-3.5-4.8c-1.2-1.6-2.3-3.2-3.5-4.8c-0.6-0.8-1.1-1.6-1.7-2.4l-1.8-2.3
		c-2.4-3-4.9-6.1-7.3-9.1c-2.5-2.9-5.1-5.8-7.7-8.7c-1.3-1.4-2.5-2.9-3.9-4.2c-1.4-1.3-2.7-2.7-4.1-4c-1.4-1.3-2.7-2.7-4.1-4l-2-2
		c-0.7-0.7-1.4-1.2-2.1-1.9c0.1,1.7,0.2,3.3,0.2,5c-2.5-2.4-5.2-4.6-7.8-6.9c-1.5-2.4-1-4.6,4.6,0.4c-0.8-2.1-3.5-3.8-6.1-4.9
		c-0.6-0.3-1.3-0.5-1.9-0.7c-0.6-0.2-1.2-0.3-1.7-0.4c-1-0.2-1.7-0.2-1.8-0.1c-5.3-5-3.6-5-0.9-4.1c2.7,0.9,6.3,2.8,4.6,1.4
		l-5.1-3.5l0.8,1.2c-2.4-0.9-4-1.1-5.8-1.8c-0.9-0.3-1.9-0.8-3.1-1.5c-1.2-0.7-2.7-1.6-4.5-2.9c-4.3-3.8-1.1-3.5-2.9-4.9
		c0.2-0.2-0.4-0.7-2.8-2c-3.7-2.5-7.4-4.9-11.1-7.3l3,5.2c-2.9-0.9-5.5-2.6-6.9-3.3c-0.7-0.3-1.2-0.4-1.2,0s0.3,1.2,1.2,2.7
		c-0.3-0.6-0.7-1.2-1.3-1.8c-0.6-0.6-1.2-1.2-2-1.9c-1.5-1.3-3.4-2.7-5.5-4.1c-4.2-2.9-9.6-5.6-15-8.2c-2.6-1.4-5.4-2.4-7.9-3.5
		c-2.6-1.1-5-2.1-7.1-3c-1.1-0.5-2.1-0.9-3-1.2c-0.9-0.4-1.8-0.7-2.6-1c-1.5-0.6-2.6-1.2-3.2-1.6c-2.1-0.2-4.1-0.6-6.2-1
		c-2-0.4-4.1-0.8-6.2-1.4c-4.1-1.1-8.4-2.6-13.2-3.9c2.2,1.2,2.8,4.7-5.3,2.2c1.2-1.4,0.9-2.6-0.4-3.6c-1.2-1-3.3-1.9-5.8-2.7
		c-2.5-0.8-5.3-1.6-7.9-2.6c-1.3-0.5-2.5-1-3.6-1.6s-2.1-1.2-2.8-1.9c2.8,2.1-3.3,1.3-9,0.7c-2.8-0.3-5.6-0.3-7-0.1
		c-1.5,0.3-1.6,1,0.6,2.4c-7-1.4-0.1-2.5-5.4-4.7c-2.2,0.1-4.4,0-6.6,0c-2.3,0-4.5-0.1-6.9-0.3c-2.3-0.2-4.7-0.4-7.1-0.6
		c-2.4-0.2-4.9-0.4-7.4-0.6c-2.5-0.2-5-0.5-7.6-0.6s-5.1-0.2-7.8-0.2c-1.3,0-2.6,0-3.9,0h-2l-2,0.1c-2.6,0.2-5.3,0.4-7.9,0.7
		c-0.2,0.9,3.4,2-1,3.6c-3.8-1.3-7.7-2.1-11.6-3.2c-2.1,0.5-2.9,1.9-4.1,2.8c-0.6,0.5-1.4,0.9-2.5,1.1s-2.5,0.2-4.5-0.3
		c1.2,0.5,2.9,1.4,0.2,2.1c-2.6,0.2-5.2,0.4-7.8,0.7l-1.9,0.2c-0.6,0.1-1.3,0.2-1.9,0.3l-3.9,0.7c-2.6,0.5-5.2,1-7.7,1.5
		c-2.6,0.5-5.1,1.3-7.7,2c-2.5,0.7-5.1,1.4-7.6,2.2c-2.5,0.9-5,1.7-7.5,2.6s-5,1.7-7.5,2.7l-7.4,3l-3.7,1.5l-1.8,0.7l-1.8,0.8
		l-7.3,3.2l-3.7,1.6c-1.2,0.5-2.4,1.1-3.6,1.7c-2.4,1.1-4.8,2.3-7.2,3.3l-3.7,1.6l-3.6,1.7c-2.4,1.1-4.8,2.2-7.3,3.3
		c-2.5,1-4.9,2.2-7.3,3.3c-2.5,1.1-4.9,2.1-7.5,3.2c5.8-1.7,2.6,0.5-1,2.9c2.6-1.2,1.1,1.8,2.3,2.5c-2.7,1.2-5.4,2.4-8.1,3.7
		l-4.1,1.9l-2.1,0.9c-0.7,0.3-1.3,0.7-2,1c-0.3,2.3-3.9,5.3-7.5,8.1c-0.9,0.7-1.8,1.4-2.6,2.1s-1.5,1.4-2.1,2.1
		c-1.2,1.3-1.9,2.5-1.8,3.4l3.8-4.1c-1.6,3.9,1.7,3.7,5.6,3.3c4-0.3,8.6-1,9.7,1.2c0.9-2.1,2.6-3.6,4.8-4.9s4.9-2.3,7.7-3.4
		c1.4-0.6,2.8-1.2,4.2-1.8c0.7-0.3,1.4-0.7,2.1-1.1c0.7-0.4,1.4-0.7,2.1-1.1c2.7-1.6,5.1-3.7,7.1-6.8c2.9-0.7-1.3,2.6,0.6,2.7
		c1.6-3.6,5-5.8,11.8-8.6l-0.5,0.9c1.1-0.7,2.2-1.3,3.2-1.9c1.1-0.6,2.1-1.1,3.1-1.6c2-1,3.9-1.9,5.8-2.8c0.9-0.4,1.8-0.8,2.7-1.2
		s1.8-0.8,2.7-1.1c1.8-0.7,3.6-1.3,5.4-1.9c1.8-0.6,3.6-1.2,5.5-1.9c0.9-0.3,1.9-0.6,2.9-0.9c1-0.3,2-0.6,3.1-0.9
		c2.1-0.6,4.3-1.3,6.7-2c0.6-0.2,1.2-0.4,1.8-0.5c0.6-0.2,1.3-0.3,1.9-0.5c1.3-0.3,2.6-0.7,4-1l-2.4-1.7c4.8-1.2,6-0.9,8.4-1
		c4.3-5.2-13.3,4.1-9.6-1.2c2,0.6,5,0.3,8.6-0.6c1.8-0.5,3.7-0.8,5.7-1.3s4.1-1,6.1-1.6c1-0.3,2-0.5,3.1-0.8c1-0.2,2-0.4,3-0.6
		c2-0.4,3.8-0.7,5.5-0.8c3.4-0.3,6.1-0.2,7.4,1c7.5-1.3-2.7-2.3,4.8-3.6l2.2,1.1l1.6-2.2c1.2-0.1,2.3-0.2,3.3-0.1
		c1,0.1,1.8,0.3,2.5,0.6c1.4,0.5,2.1,1.2,2.3,1.8c-1.2,0-3.3,0.8-4.6,1c3.3,0.5,7.7-0.2,11.7-1c2-0.4,3.8-0.7,5.3-0.9
		s2.6-0.3,3.2-0.2c-2.4-0.1-4.9-0.3-7.3-0.3c2.5-0.4,5.2-0.7,7.9-1c1.3-0.1,2.7-0.3,4.1-0.4c0.7-0.1,1.4-0.1,2.1-0.2
		c0.7,0,1.4-0.1,2.1-0.1c2.8-0.1,5.6-0.2,8.4-0.3c1.4,0,2.8-0.1,4.3-0.1l4.3,0.1c2.8,0,5.7,0.1,8.5,0.1c2.8,0.1,5.6,0.2,8.4,0.3
		c5.5,0,10.8,0.3,15.9,0.1l-1.4-1.3c1.9,0,3.6,0,5,0c1.4,0.1,2.6,0.3,3.7,0.5c2.1,0.4,3.7,0.8,5.2,1.3c1.6,0.5,3.2,1,5.5,1.6
		c2.2,0.6,5.1,1.3,9.3,1.9l-0.7,0.1c3.6-0.5,8.1,0.2,12.5,1.5c-4.5,0.2,7.1,4.5,1.3,4.5c1,0.1,2,0.2,2.8,0.4
		c0.8,0.1,1.6,0.3,2.3,0.4c1.4,0.2,2.5,0.4,3.3,0.5c1.7,0.2,2.6,0.2,3.4,0.1c0.7-0.1,1.4-0.3,2.5-0.6c1.2-0.2,2.9-0.5,5.8-0.5
		l1.8,2.6c2.1-0.1,3.2-0.4,4.9-0.3c1.7,0.1,3.9,0.5,7.9,2c-3.5-0.6-2.5,0.5-1.7,1.8c0.9,1.2,1.6,2.4-2.4,1.9
		c3.7,2.7,7.1,4.4,10.3,5.7c3.1,1.3,6,2.3,8.6,3.1c1.3,0.4,2.5,0.8,3.7,1.2c1.1,0.4,2.2,0.9,3.1,1.5c1.9,1.2,3.4,2.7,4.5,5
		c4.8-0.3,1.8-2.7-1.9-5c-0.9-0.6-1.9-1.1-2.8-1.6s-1.7-0.9-2.4-1.2c-1.3-0.6-1.8-1-0.7-0.7c-1.3-1.6,0.6-1.7,3.5-1.1
		c2.9,0.8,6.6,2.4,9,4c1.2,0.7,2.2,1.7,3.1,2.9c0.9,1.2,1.7,2.7,2.8,4.3c1.1,1.6,2.4,3.3,4.1,5.1c0.9,0.9,1.9,1.8,3.1,2.7
		c1.1,1,2.4,2,3.9,3c-1.1-0.8-1.4-0.5-2.6-1.4c1.8,2,4.2,3.1,6.6,4.4c1.2,0.6,2.5,1.3,3.7,2.2c1.2,0.9,2.3,2,3.2,3.4
		c4.8-0.3,6.6,5.2,9.9,2.8l-11-7.2c3.2,1.8,7,2.9,11,4.7c2,0.8,4,2.1,6,3.6s4,3.4,6,5.8c-1.3,0-4.7-1.6-7-2.8c1,1.6,2.4,2.6,3.9,3.6
		s2.9,2,3.9,3.7c-0.9,0.6-2,0.2-3.5-0.7c-1.5-0.8-3.2-2.2-5.1-3.7c-1.9-1.5-3.9-3.2-5.9-4.7c-2.1-1.4-4.3-2.5-6.3-3.1
		c0.5,0.9,1.6,1.8,2.9,2.6c1.3,0.8,2.8,1.5,3.9,2.3c2.3,1.5,3.7,2.6,0.9,3c3.9-0.3,6.5,2.1,9.3,4.9c2.7,3,5.6,6.3,10.5,8.1l-2.1,1.3
		c1.4,0.7,4.4,2.2,6.2,4.3l-5.7-1.5c3.6,1.8,5.8,4.9,7.8,8.1c1,1.6,2,3.1,3,4.7c1,1.5,2.2,2.9,3.7,4.1c-2.5-2.9-3.8-4.6-4.3-5.7
		s-0.4-1.4,0.1-1.7c0.9-0.5,2.7-0.3,1-3.2c2,1.4,3.4,2.8,4.5,4.1c1.1,1.2,1.9,2.3,2.5,3.3c1.2,2,1.5,3.6,1.8,5.4
		c0.3,1.7,0.5,3.6,1.6,6c1,2.4,2.9,5.3,6.3,9.4c-2-2.1-5.5-9.4-1.8-6.5c0.5,0.9,1.1,1.8,1.6,2.8s1.1,2,1.5,3c0.9,2,1.6,3.9,1.8,5.3
		c4.2,5.6,4.5,4.8,4.2,3.1s-1.1-4.3,1.3-2.2c0.2,2.8,1.5,4,3.1,5.2c1.7,1.2,3.8,2.3,5.9,4.7l-2,1.3c0.9,1.8,1.7,3.2,2.4,4.2
		c0.6,1.1,1.2,1.8,1.7,2.3c1,1,1.8,1.1,2.5,1.2c1.5,0.2,2.8,0.2,5.7,7l-6-3.8c1.5,2.1,3.1,4.1,4.4,6.2c-1.1,0-2.1-0.1-3.1-0.1
		c2.8,3.2,4.3,5.4,5.5,7.8c0.6,1.2,1.1,2.4,1.7,3.8c0.6,1.4,1,3,1.7,4.9c0.8-2.4,4.4-0.8,7.4,5.8c0.2,1.3,0,1.8-0.2,2
		s-0.5,0.1-0.7,0.2c-0.3,0.1-0.2,0.8,1.8,5.5c-1.1-0.8-2.3-1.6-3.2-2.8c-0.4-0.6-0.8-1.3-1-2.2c-0.3-0.9-0.4-1.9-0.3-3.1
		c-0.9-0.1-2.3-1.5-3.2-1.6c0.7,5.4,4.6,12.3,5.9,15.7c-0.4-1.3-0.9-3-0.9-3.9c1.4,2.1,2.8,4.2,4.2,6.3l3.9,6.5
		c-0.1,2.5-1.4,1-2.7-0.5c0.6,1.4,1.3,2.5,2.1,3.7c0.8,1.3,1.6,2.7,2.3,4.8c-2.2-0.5-4,0.3-6.8-5.3c2.2,4.1,4,8.4,6,12.7
		c-0.3,0.6-0.4,2.4-0.6,3.9c-0.1,1.5-0.5,2.7-1,1.9c0.3,3.9,2.2,8.2,4.2,12.9c0.9,2.4,1.7,4.9,2.4,7.4s1.2,5.1,1.1,7.7
		c0.4,0.5,0.9,1.5,1.5,3.6c0.2,2.4,0.2,4.7,0.3,7.1c0,2.3-0.2,4.7-0.1,7.1c0,2.4,0.2,4.8,0.5,7.3c0.2,2.5,0.6,5.2,1.4,8l-1.7,3.3
		l-0.8,1.6l-0.9,1.6c0.3,4.4,1.5,2.3,2.7,0.8c1.2-1.4,2.5-2.2,3,5.3c0.5,5.3-0.3,6.3-1.3,6.4s-2.2-0.7-2.9,1.1
		c0.7,2.6,1.8,6.3,2.3,10.5c0.1,0.5,0.1,1.1,0.1,1.6s0,1.1,0,1.6c0,1.1-0.1,2.2-0.3,3.4c-0.3,2.3-0.9,4.6-1.9,7
		C637.2,351.9,638,349.4,638.1,346.4z M607.3,451.9c0.3-1.1,0.6-2.7,1.1-4.2c0.4-1.5,1-2.8,2-3.2c0.7,1.7,0.5,2.9-0.1,3.9
		C609.7,449.5,608.5,450.5,607.3,451.9z M492.1,574.1c1.1-1.4,3.4-2.4,6.4-3C496.8,572.3,494.7,573.5,492.1,574.1z M74.1,439.2
		c0.1,0.1,0.1,0.1,0.2,0.2C75.5,444.5,75.1,442.7,74.1,439.2z M71,428.9c-0.7-0.9-1-0.7-1.1-0.1c0.8,0.5,1.7,2.7,2.6,5.3
		C72.7,433.2,72.6,431.7,71,428.9z M525.7,62.7l1.4,1.7C522.8,62.3,524.2,62.5,525.7,62.7z"/>
	<path class="st0" d="M507.3,561.6c0.7,0,1.1,0.3,1.5,0.6C509.2,561.4,509,561,507.3,561.6z"/>
	<path class="st0" d="M635.7,278.2c0-0.1,0-0.2,0-0.3c-0.2-0.2-0.3-0.2-0.5-0.3L635.7,278.2z"/>
	<path class="st0" d="M181.9,543.7c1.4,1.5,2.1,2.6,2.4,3.4C184.7,546.7,184.3,545.7,181.9,543.7z"/>
	<path class="st0" d="M51.2,375.3c0.6,2.3,1.3,4.5,2,6.7c-0.8-3.3-0.6-4.5-0.5-6.3C52.2,375.9,51.6,377.4,51.2,375.3z"/>
	<path class="st0" d="M60.7,315.4c-0.3-1,0-2-0.3-3l-1.1,0.2C59.2,316.8,60.1,319.6,60.7,315.4z"/>
	<path class="st0" d="M58,367.6c1-0.4,1.1-1.7,0.8-3.4c-0.1-0.8-0.4-1.8-0.6-2.9c-0.2-1-0.5-2.2-0.7-3.3c0,0.3,0.1,0.5,0.1,0.8
		c-1.5-0.5-1.8,0.5-1.6,2.2C56.2,362.8,57.1,365.2,58,367.6z"/>
	<path class="st0" d="M57.3,357c-0.3-1.4-0.5-2.9-0.6-4.3C55.5,352.2,56.7,354.4,57.3,357z"/>
	<path class="st0" d="M65,416.6c-0.2-2.3-2.9-0.5-2.5-2c-1.6-0.8,0.3,2.6,2,4.7c0.8,1.1,1.7,1.8,1.9,1.6
		C66.6,420.7,66.3,419.5,65,416.6z"/>
	<polygon class="st0" points="64,362.8 61.8,364.8 64.2,367.1 	"/>
	<path class="st0" d="M70.1,399l-1.3-7.4c-0.4,0.2-0.9-0.6-1.4-1.7C68.5,394.4,69.4,399.4,70.1,399z"/>
	<path class="st0" d="M67.4,389.9c-0.6-2.3-1-4.6-1.8-5.8C66,385.4,66.6,388.2,67.4,389.9z"/>
	<path class="st0" d="M66.4,372.6c0,0.7-0.1,1.5-0.1,2.3l1,5.1l-0.5-3.7l-0.2-1.8L66.4,372.6z"/>
	<path class="st0" d="M101.8,472.4l5,6.5c1.2,0.2,0.4-1.9-1.5-4.3C103.7,473.3,101.8,471,101.8,472.4z"/>
	<path class="st0" d="M96,447.8c0.5,2.2,0.1,2.5-0.1,4l2.9-1.2L96,447.8z"/>
	<path class="st0" d="M107.8,467.8c1.2,0.2,8.2,8.4,2.7,0c-0.6-0.1-2.1-1.7-3-2.6c-0.4-0.4-0.8-0.6-0.8-0.3c0,0.2,0.1,0.5,0.2,0.9
		C107.1,466.3,107.4,466.9,107.8,467.8z"/>
	<polygon class="st0" points="186.7,557.8 185,556.7 182.2,561 	"/>
	<path class="st0" d="M286.2,590.5c-8.5-3.5-2.9,2.5-10.5-1.2c-1.2,0.2,0.3,1.1,1.9,1.8s3.1,1.4,1.9,1.6
		C285.3,593,287.9,594.4,286.2,590.5z"/>
	<path class="st0" d="M279.5,592.8c-0.9,0-1.9,0-3,0C278.2,592.9,279,592.8,279.5,592.8z"/>
	<path class="st0" d="M161.6,78.1c-1.9,1-3.7,2.2-5.6,3.3l4.2-1.4C160.7,79.4,161.2,78.8,161.6,78.1z"/>
	<path class="st0" d="M154.8,89l-3.3-1.4l-0.9,4.7C151.6,91.2,153.5,89.2,154.8,89z"/>
	<path class="st0" d="M593.5,462.8l0.4,0.8c1.2-0.3,2-1.5,3.5-3.7L593.5,462.8z"/>
	<polygon class="st0" points="627,391.5 626.6,392.8 630.1,391.1 	"/>
	<path class="st0" d="M633.2,325.7c-0.1,1.3,0.1,2.8,0.1,4.3s0.1,2.9-0.1,4.3C633.1,328.4,636.8,325.1,633.2,325.7z"/>
</g>
</svg>
